<?xml version="1.0" encoding="utf-8"?>
<!-- Generator: Adobe Illustrator 16.0.3, SVG Export Plug-In . SVG Version: 6.00 Build 0)  -->
<!DOCTYPE svg PUBLIC "-//W3C//DTD SVG 1.1//EN" "http://www.w3.org/Graphics/SVG/1.1/DTD/svg11.dtd">
<svg version="1.1" id="Layer_1" xmlns="http://www.w3.org/2000/svg" xmlns:xlink="http://www.w3.org/1999/xlink" x="0px" y="0px"
	 width="500px" height="500px" viewBox="0 0 500 500" enable-background="new 0 0 500 500" xml:space="preserve">
<g>
	<circle fill="#FFFFFF" cx="250" cy="250" r="238.92"/>
	<path d="M250,500.227C112.015,500.227-0.226,387.959-0.226,250C-0.226,112.014,112.014-0.226,250-0.226
		c137.986,0,250.227,112.239,250.227,250.226C500.227,387.959,387.959,500.227,250,500.227z M250,22.399
		C124.5,22.399,22.398,124.5,22.398,250C22.398,375.5,124.5,477.604,250,477.604S477.603,375.5,477.603,250
		C477.603,124.514,375.5,22.399,250,22.399z"/>
</g>
<g enable-background="new    ">
	<path d="M75.711,149.417c2.687,0,5.22,0.236,7.601,0.708c3.206,0.636,4.809,1.991,4.809,4.065c0,0.684-0.159,1.196-0.477,1.538
		c-0.318,0.342-1.126,0.843-2.422,1.503c-1.084,0.542-1.798,1.732-2.139,3.57c-0.342,1.839-0.513,5.422-0.513,10.749
		c0,9.004,0.224,14.578,0.672,16.723c0.165,0.685,0.418,1.208,0.76,1.573c0.342,0.366,0.937,0.761,1.786,1.185
		c1.556,0.707,2.333,1.732,2.333,3.076c0,1.886-1.438,3.182-4.313,3.89c-3.111,0.754-6.918,1.131-11.42,1.131
		c-7.685,0-11.526-1.461-11.526-4.384c0-1.061,0.754-2.051,2.263-2.97c1.154-0.708,1.838-1.674,2.051-2.899
		c0.447-2.688,0.671-8.392,0.671-17.112c0-6.034-0.307-9.9-0.919-11.597c-0.331-0.967-1.12-1.839-2.369-2.617
		c-0.967-0.636-1.615-1.166-1.944-1.591c-0.331-0.424-0.495-0.966-0.495-1.626c0-1.014,0.489-1.821,1.467-2.422
		c0.978-0.602,2.705-1.137,5.18-1.608C69.712,149.713,72.693,149.417,75.711,149.417z"/>
	<path d="M107.602,163.455c1.344,0,2.015,0.954,2.015,2.863c0,0.024,0,0.225,0,0.602c-0.023,0.377-0.035,0.684-0.035,0.919
		c0,1.272,0.377,1.909,1.131,1.909c0.4,0,1.025-0.507,1.874-1.521c1.272-1.461,2.875-2.622,4.808-3.482s3.913-1.29,5.94-1.29
		c3.936,0,6.67,1.438,8.203,4.313c0.589,1.061,1.072,1.591,1.45,1.591c0.259,0,0.872-0.472,1.838-1.414
		c3.064-2.993,6.541-4.49,10.43-4.49c3.041,0,5.527,0.837,7.46,2.51c2.027,1.745,3.041,4.361,3.041,7.85
		c0,0.754-0.023,2.027-0.07,3.818c-0.048,0.613-0.071,2.463-0.071,5.551c0,1.979-0.012,3.371-0.036,4.172
		c-0.023,0.495-0.035,0.849-0.035,1.061c0,1.509,0.471,2.828,1.414,3.96c0.566,0.684,0.913,1.138,1.043,1.361
		c0.129,0.225,0.195,0.524,0.195,0.901c0,3.018-3.548,4.525-10.643,4.525c-3.135,0-5.663-0.377-7.583-1.131
		c-1.921-0.754-2.882-1.744-2.882-2.97c0-0.472,0.065-0.831,0.195-1.079c0.129-0.247,0.583-0.901,1.361-1.962
		c0.73-0.966,1.096-4.184,1.096-9.652c0-3.182-0.224-5.397-0.672-6.646c-0.519-1.485-1.556-2.228-3.111-2.228
		c-0.778,0-1.467,0.242-2.068,0.725c-0.601,0.483-0.996,1.091-1.184,1.82c-0.212,0.849-0.331,3.111-0.354,6.789
		c0.071,3.96,0.195,6.364,0.372,7.213c0.177,0.848,0.771,2.027,1.785,3.535c0.235,0.354,0.354,0.802,0.354,1.344
		c0,2.805-3.666,4.207-10.996,4.207c-4.408,0-7.378-0.33-8.91-0.99c-1.226-0.518-1.838-1.438-1.838-2.758
		c0-0.589,0.076-1.001,0.23-1.237c0.153-0.235,0.677-0.777,1.573-1.626c0.518-0.495,0.854-0.96,1.007-1.396s0.265-1.231,0.336-2.387
		c0.165-2.593,0.248-5.209,0.248-7.849c0-4.62-1.179-6.931-3.536-6.931c-1.768,0-2.817,0.99-3.146,2.971
		c-0.283,1.862-0.424,4.525-0.424,7.99c0,2.593,0.053,4.29,0.159,5.091c0.106,0.802,0.395,1.639,0.866,2.511
		c0.565,1.014,0.849,1.838,0.849,2.475c0,1.532-1.073,2.594-3.218,3.183c-2.333,0.636-4.903,0.954-7.708,0.954
		c-3.63,0-6.293-0.289-7.99-0.866c-1.697-0.577-2.546-1.49-2.546-2.74c0-0.471,0.112-0.871,0.336-1.202
		c0.224-0.329,0.736-0.849,1.538-1.556c1.061-0.966,1.673-2.298,1.838-3.995c0.259-2.922,0.389-5.951,0.389-9.086
		c0-2.239-0.112-3.801-0.336-4.686c-0.225-0.884-0.702-1.596-1.432-2.139c-0.707-0.542-1.161-0.954-1.361-1.237
		s-0.3-0.672-0.3-1.167c0-1.579,1.237-2.828,3.712-3.748C100.165,164.562,104.632,163.478,107.602,163.455z"/>
	<path d="M180.471,163.171c4.102,0,7.578,1.037,10.43,3.111c1.508,1.108,2.563,2.375,3.165,3.801
		c0.601,1.427,0.901,3.389,0.901,5.887l-0.071,5.269c0,3.653,0.259,6.022,0.778,7.106c0.259,0.519,0.507,0.849,0.743,0.989
		c0.235,0.142,0.73,0.271,1.485,0.39c0.754,0.118,1.131,0.613,1.131,1.484c0,1.132-0.454,2.311-1.361,3.536
		c-0.908,1.226-2.081,2.251-3.518,3.076c-1.768,1.036-3.619,1.556-5.551,1.556c-2.475,0-4.432-0.849-5.869-2.546
		c-0.495-0.613-0.955-0.92-1.379-0.92c-0.472,0-1.096,0.296-1.874,0.885c-2.357,1.72-5.033,2.581-8.026,2.581
		c-3.088,0-5.586-0.66-7.496-1.98c-1.25-0.872-2.24-2.009-2.97-3.412c-0.731-1.401-1.096-2.869-1.096-4.401
		c0-2.451,0.99-4.62,2.97-6.506c3.088-2.97,7.708-4.466,13.86-4.49c1.367,0,2.228-0.135,2.581-0.406
		c0.354-0.271,0.53-0.901,0.53-1.892c0-2.498-0.26-4.308-0.778-5.427c-0.519-1.12-1.367-1.68-2.546-1.68
		c-0.707,0-1.338,0.212-1.892,0.636c-0.554,0.425-1.243,1.202-2.068,2.334c-2.098,2.993-4.291,4.49-6.577,4.49
		c-1.155,0-2.098-0.342-2.828-1.025c-0.731-0.684-1.096-1.579-1.096-2.688c0-1.131,0.454-2.263,1.361-3.394
		c0.907-1.132,2.139-2.121,3.695-2.97C171.372,164.303,175.827,163.171,180.471,163.171z M178.102,183.642
		c-1.038,0-1.939,0.425-2.705,1.273s-1.149,1.862-1.149,3.04c0,1.132,0.271,2.046,0.813,2.74c0.542,0.696,1.26,1.043,2.157,1.043
		c1.885,0,2.828-1.591,2.828-4.772c0-1.296-0.136-2.169-0.406-2.616C179.369,183.902,178.856,183.667,178.102,183.642z"/>
	<path d="M238.914,161.297c0.589,0,1.107,0.336,1.556,1.008c0.447,0.672,0.672,1.456,0.672,2.352c0,0.967-0.301,2.062-0.901,3.288
		c-0.602,1.226-1.326,2.204-2.175,2.935c-0.542,0.472-0.812,0.849-0.812,1.131c0,0.071,0.022,0.354,0.07,0.849
		c0.07,0.495,0.106,0.943,0.106,1.344c0,2.805-0.943,5.162-2.829,7.071c-1.697,1.697-3.884,3.018-6.559,3.96
		s-5.616,1.414-8.821,1.414c-0.777,0-1.544-0.047-2.298-0.142c-0.613-0.07-1.084-0.106-1.414-0.106c-1.25,0-1.874,0.625-1.874,1.874
		c0,0.802,0.406,1.433,1.22,1.892c0.813,0.46,1.915,0.689,3.306,0.689c0.942,0,2.334-0.129,4.172-0.389
		c3.865-0.542,6.718-0.813,8.557-0.813c2.781,0,4.938,0.46,6.47,1.379c1.226,0.707,2.198,1.697,2.917,2.97
		c0.719,1.273,1.078,2.641,1.078,4.102c0,2.381-0.872,4.69-2.616,6.93c-2.074,2.64-5.126,4.597-9.157,5.869
		c-3.158,0.99-6.812,1.485-10.96,1.485c-5.232,0-9.476-0.802-12.729-2.404c-1.509-0.755-2.71-1.745-3.606-2.97
		c-0.896-1.227-1.344-2.499-1.344-3.818c0-0.92,0.253-1.769,0.76-2.546c0.506-0.778,1.149-1.332,1.927-1.662
		c0.707-0.282,1.061-0.589,1.061-0.919c0-0.259-0.295-0.637-0.884-1.132c-1.886-1.578-2.829-3.217-2.829-4.914
		c0-1.132,0.454-2.298,1.361-3.5s2.033-2.133,3.376-2.793c0.565-0.283,0.849-0.566,0.849-0.849c0-0.33-0.354-0.825-1.061-1.485
		c-2.428-2.239-3.642-4.855-3.642-7.849c0-1.579,0.43-3.088,1.291-4.526c0.86-1.438,2.056-2.663,3.588-3.677
		c3.795-2.475,8.002-3.712,12.622-3.712c1.839,0,3.89,0.235,6.152,0.707c2.145,0.424,3.617,0.636,4.419,0.636
		c2.569,0,5.127-1.013,7.673-3.04C238.172,161.509,238.607,161.297,238.914,161.297z M212.009,200.791
		c-0.59,0-0.885,0.341-0.885,1.025c0,1.391,0.755,2.516,2.264,3.376c1.508,0.86,3.465,1.291,5.869,1.291
		c2.31,0,4.118-0.307,5.427-0.92c1.308-0.613,1.962-1.473,1.962-2.581c0-0.589-0.247-1.09-0.742-1.502
		c-0.495-0.413-1.108-0.619-1.839-0.619c-0.377,0-0.919,0.047-1.626,0.142c-1.32,0.212-2.793,0.318-4.42,0.318
		c-1.202,0-2.356-0.06-3.465-0.177c-0.825-0.071-1.497-0.165-2.015-0.283C212.303,200.813,212.126,200.791,212.009,200.791z
		 M219.716,168.617c-1.179,0-2.127,0.447-2.846,1.343c-0.72,0.896-1.079,2.086-1.079,3.571c0,2.546,0.39,4.585,1.167,6.116
		c0.778,1.533,1.804,2.299,3.076,2.299c1.249,0,2.239-0.478,2.97-1.433c0.73-0.954,1.097-2.232,1.097-3.836
		c0-2.521-0.384-4.484-1.149-5.887C222.185,169.388,221.106,168.664,219.716,168.617z"/>
	<path d="M262.851,165.646v20.542c0,1.627,0.146,2.817,0.441,3.571c0.295,0.755,0.89,1.449,1.785,2.086
		c0.73,0.519,1.22,0.961,1.468,1.326c0.247,0.365,0.371,0.83,0.371,1.396c0,3.04-3.854,4.561-11.562,4.561
		c-4.148,0-7.437-0.33-9.864-0.99c-0.825-0.235-1.491-0.647-1.997-1.237c-0.508-0.589-0.761-1.261-0.761-2.015
		c0-0.637,0.129-1.132,0.389-1.485s0.92-0.919,1.98-1.697c0.73-0.542,1.249-1.426,1.556-2.651c0.306-1.226,0.459-3.053,0.459-5.48
		c0-0.777-0.053-2.232-0.158-4.366c-0.106-2.133-0.184-3.377-0.23-3.73c-0.142-0.966-0.802-1.708-1.979-2.228
		c-1.462-0.636-2.192-1.578-2.192-2.828c0-1.485,0.955-2.593,2.864-3.323c2.64-1.014,5.468-1.874,8.485-2.581
		c3.017-0.707,5.351-1.061,7-1.061C262.201,163.455,262.851,164.185,262.851,165.646z M255.85,150.161
		c2.051,0,3.677,0.383,4.879,1.148c1.202,0.767,1.804,1.798,1.804,3.094c0,1.815-0.908,3.253-2.723,4.313
		c-2.876,1.674-6.353,2.511-10.43,2.511c-1.722,0-3.089-0.33-4.102-0.99c-1.367-0.849-2.051-2.027-2.051-3.535
		c0-2.027,1.449-3.618,4.349-4.773C250.522,150.75,253.28,150.161,255.85,150.161z"/>
	<path d="M311.89,176.253l0.495,12.445c0.047,0.942,0.194,1.639,0.441,2.086c0.248,0.448,0.973,1.308,2.175,2.581
		c0.354,0.377,0.53,0.907,0.53,1.591c0,1.556-0.932,2.64-2.793,3.253c-1.862,0.612-5.186,0.919-9.971,0.919
		c-3.253,0-5.551-0.283-6.895-0.849c-1.391-0.589-2.086-1.543-2.086-2.863c0-0.472,0.071-0.819,0.212-1.043
		c0.142-0.225,0.613-0.772,1.415-1.645c0.942-0.99,1.414-4.29,1.414-9.899c0-3.253-0.378-5.657-1.132-7.213
		c-0.613-1.249-1.744-1.874-3.394-1.874c-1.58,0-2.664,0.507-3.253,1.521c-0.59,1.014-0.884,2.853-0.884,5.516v7
		c0,1.392,0.088,2.346,0.265,2.864s0.761,1.521,1.75,3.005c0.26,0.425,0.39,0.908,0.39,1.45c0,1.391-0.967,2.416-2.899,3.076
		c-1.934,0.659-4.95,0.989-9.052,0.989c-6.553,0-9.828-1.354-9.828-4.065c0-0.566,0.1-0.996,0.3-1.291
		c0.2-0.294,0.678-0.712,1.433-1.255c0.612-0.447,1.001-0.96,1.166-1.538c0.165-0.577,0.318-1.997,0.46-4.261
		c0.165-2.687,0.247-5.503,0.247-8.449c0-1.627-0.123-2.693-0.371-3.2c-0.247-0.507-0.96-1.125-2.139-1.856
		c-1.014-0.636-1.521-1.414-1.521-2.333c0-0.942,0.412-1.715,1.237-2.316c0.825-0.601,2.522-1.36,5.092-2.28
		c2.263-0.801,4.442-1.479,6.541-2.033c2.098-0.553,3.535-0.83,4.313-0.83c0.707,0,1.302,0.26,1.785,0.777
		c0.482,0.519,0.725,1.132,0.725,1.839c0,0.07-0.012,0.365-0.035,0.884c-0.023,0.188-0.035,0.354-0.035,0.495
		c0,1.131,0.471,1.697,1.414,1.697c0.565,0,1.167-0.448,1.803-1.344c2.027-2.923,4.974-4.385,8.839-4.385
		c2.971,0,5.516,0.778,7.638,2.334c1.484,1.108,2.521,2.41,3.111,3.907C311.383,171.157,311.748,173.354,311.89,176.253z"/>
	<path d="M337.771,163.171c4.101,0,7.577,1.037,10.43,3.111c1.508,1.108,2.563,2.375,3.164,3.801
		c0.602,1.427,0.901,3.389,0.901,5.887l-0.07,5.269c0,3.653,0.259,6.022,0.778,7.106c0.259,0.519,0.506,0.849,0.742,0.989
		c0.235,0.142,0.73,0.271,1.484,0.39c0.755,0.118,1.132,0.613,1.132,1.484c0,1.132-0.454,2.311-1.361,3.536s-2.08,2.251-3.518,3.076
		c-1.768,1.036-3.619,1.556-5.551,1.556c-2.476,0-4.432-0.849-5.869-2.546c-0.495-0.613-0.955-0.92-1.379-0.92
		c-0.472,0-1.097,0.296-1.874,0.885c-2.357,1.72-5.033,2.581-8.026,2.581c-3.088,0-5.586-0.66-7.495-1.98
		c-1.25-0.872-2.239-2.009-2.97-3.412c-0.731-1.401-1.096-2.869-1.096-4.401c0-2.451,0.989-4.62,2.97-6.506
		c3.087-2.97,7.707-4.466,13.859-4.49c1.366,0,2.228-0.135,2.581-0.406c0.354-0.271,0.53-0.901,0.53-1.892
		c0-2.498-0.26-4.308-0.778-5.427c-0.519-1.12-1.367-1.68-2.545-1.68c-0.707,0-1.338,0.212-1.892,0.636
		c-0.555,0.425-1.244,1.202-2.068,2.334c-2.099,2.993-4.29,4.49-6.576,4.49c-1.155,0-2.099-0.342-2.829-1.025
		s-1.096-1.579-1.096-2.688c0-1.131,0.453-2.263,1.361-3.394c0.907-1.132,2.139-2.121,3.694-2.97
		C328.672,164.303,333.126,163.171,337.771,163.171z M335.401,183.642c-1.037,0-1.939,0.425-2.705,1.273s-1.148,1.862-1.148,3.04
		c0,1.132,0.271,2.046,0.812,2.74c0.542,0.696,1.261,1.043,2.157,1.043c1.886,0,2.828-1.591,2.828-4.772
		c0-1.296-0.136-2.169-0.406-2.616C336.668,183.902,336.155,183.667,335.401,183.642z"/>
	<path d="M375.141,163.418c1.249,0,2.01,0.177,2.281,0.531c0.271,0.354,0.512,1.484,0.725,3.394
		c0.117,1.038,0.482,1.556,1.096,1.556c0.472,0,0.919-0.341,1.344-1.025c1.886-2.946,4.349-4.419,7.39-4.419
		c2.145,0,3.9,0.695,5.268,2.086c0.66,0.684,1.202,1.562,1.626,2.634c0.425,1.073,0.637,2.104,0.637,3.094
		c0,1.108-0.26,2.245-0.777,3.412c-0.52,1.166-1.19,2.127-2.016,2.881c-1.509,1.438-3.358,2.157-5.551,2.157
		c-1.202,0-2.21-0.212-3.023-0.637c-0.812-0.424-1.88-1.284-3.199-2.581c-0.495-0.495-0.955-0.742-1.379-0.742
		c-0.66,0-1.091,0.371-1.291,1.113c-0.2,0.743-0.3,2.305-0.3,4.685c0,3.56,0.129,5.987,0.389,7.284
		c0.165,0.707,0.395,1.196,0.689,1.467c0.294,0.271,0.925,0.548,1.892,0.831c2.121,0.637,3.182,1.744,3.182,3.323
		c0,0.967-0.342,1.81-1.025,2.528s-1.591,1.196-2.722,1.432c-2.263,0.472-5.587,0.707-9.971,0.707c-4.172,0-7.343-0.365-9.511-1.096
		c-1.934-0.66-2.899-1.804-2.899-3.43c0-1.226,0.707-2.321,2.121-3.288c0.684-0.447,1.155-0.854,1.415-1.22
		c0.259-0.365,0.436-0.866,0.53-1.503c0.376-2.145,0.565-6.116,0.565-11.915c0-1.061-0.118-1.82-0.354-2.28
		c-0.236-0.46-0.707-0.831-1.414-1.113c-1.674-0.66-2.511-1.614-2.511-2.864c0-1.132,0.577-2.104,1.732-2.917
		c1.154-0.813,3.088-1.62,5.799-2.422C369.507,163.997,372.596,163.443,375.141,163.418z"/>
	<path d="M431.746,180.602l-4.667,12.834c-1.155,3.183-2.316,5.781-3.482,7.796c-1.167,2.016-2.493,3.73-3.978,5.145
		c-3.064,2.923-6.753,4.384-11.066,4.384c-3.489,0-6.317-0.919-8.486-2.758c-1.674-1.414-2.51-3.217-2.51-5.409
		c0-1.815,0.583-3.341,1.75-4.578c1.167-1.238,2.599-1.856,4.296-1.856s3.063,0.565,4.102,1.697
		c0.494,0.519,0.824,0.978,0.989,1.379c0.165,0.4,0.412,1.284,0.743,2.651c0.259,1.037,0.849,1.556,1.768,1.556
		c0.73,0,1.344-0.318,1.839-0.954c0.494-0.637,0.742-1.427,0.742-2.369c0-1.108-0.613-2.958-1.839-5.551l-8.521-18.138
		c-0.896-1.886-1.568-3.064-2.016-3.536c-0.448-0.471-1.438-1.048-2.97-1.732c-0.472-0.188-0.878-0.56-1.22-1.113
		s-0.513-1.09-0.513-1.609c0-2.097,2.086-3.523,6.258-4.277c2.781-0.495,5.951-0.743,9.511-0.743c2.498,0,4.467,0.26,5.904,0.778
		c1.933,0.684,2.899,1.851,2.899,3.5c0,0.59-0.271,1.285-0.813,2.086c-0.519,0.755-0.777,1.427-0.777,2.016
		c0,0.565,0.124,1.155,0.371,1.768c0.248,0.613,0.771,1.65,1.573,3.111c0.896,1.65,1.686,2.475,2.369,2.475
		c0.73,0,1.485-0.725,2.263-2.174c0.778-1.449,1.167-2.847,1.167-4.189c0-1.084-0.295-1.968-0.884-2.652
		c-0.896-1.061-1.344-1.968-1.344-2.722c0-1.202,0.801-2.163,2.404-2.882c1.603-0.719,3.748-1.078,6.435-1.078
		c4.997,0,7.495,1.202,7.495,3.606c0,0.872-0.253,1.573-0.76,2.104s-1.432,1.031-2.775,1.502c-1.132,0.425-2.027,1.132-2.688,2.122
		C434.279,174.368,433.09,176.972,431.746,180.602z"/>
</g>
<g enable-background="new    ">
	<path d="M59.762,236.069c3.441,0,6.765,0.755,9.971,2.263c1.508,0.707,2.557,1.061,3.146,1.061c0.424,0,1.107-0.105,2.051-0.318
		c0.306-0.07,0.648-0.105,1.025-0.105c1.225,0,2.298,0.565,3.217,1.697c2.263,2.734,3.394,6.128,3.394,10.182
		c0,2.852-0.979,4.938-2.935,6.258c-1.061,0.707-2.251,1.061-3.571,1.061c-1.202,0-2.181-0.258-2.935-0.777
		c-0.755-0.518-1.485-1.438-2.192-2.758c-1.014-1.861-1.838-3.199-2.475-4.014c-0.637-0.813-1.415-1.549-2.333-2.209
		c-2.287-1.603-4.679-2.404-7.177-2.404c-2.428,0-4.355,0.879-5.781,2.635c-1.426,1.756-2.139,4.108-2.139,7.053
		c0,4.055,1.025,7.768,3.076,11.137c2.781,4.502,6.765,6.754,11.95,6.754c1.909,0,3.801-0.318,5.675-0.955
		c1.874-0.637,3.329-1.461,4.366-2.475c0.896-0.85,1.626-1.273,2.192-1.273c0.825,0,1.532,0.383,2.121,1.15
		c0.589,0.766,0.884,1.691,0.884,2.775c0,1.367-0.413,2.898-1.237,4.596c-0.825,1.697-1.815,3.029-2.97,3.994
		c-0.495,0.402-1.521,0.756-3.076,1.061c-0.896,0.166-2.086,0.602-3.571,1.309c-3.489,1.674-7.119,2.512-10.89,2.512
		c-3.937,0-7.861-0.885-11.774-2.652c-4.549-2.051-8.144-5.197-10.783-9.439c-2.593-4.125-3.889-8.439-3.889-12.941
		c0-5.232,1.626-10.006,4.879-14.319c2.829-3.748,6.517-6.611,11.066-8.592C52.514,236.824,56.085,236.069,59.762,236.069z"/>
	<path d="M106.75,250.07c4.313,0,8.097,1.12,11.349,3.358c2.333,1.604,4.208,3.689,5.622,6.26c1.461,2.686,2.192,5.492,2.192,8.414
		c0,5.115-2.346,9.463-7.036,13.047c-4.479,3.418-9.605,5.127-15.38,5.127c-5.634,0-10.195-1.604-13.683-4.809
		c-3.394-3.111-5.091-7.166-5.091-12.164c0-5.562,2.074-10.111,6.223-13.646C95.282,251.932,100.55,250.07,106.75,250.07z
		 M103.921,258.236c-1.038,0-1.868,0.385-2.493,1.15s-0.937,1.785-0.937,3.059c0,1.414,0.265,3.34,0.796,5.779
		c0.53,2.439,1.161,4.604,1.892,6.488c0.73,1.934,1.92,2.898,3.571,2.898c2.098,0,3.146-1.33,3.146-3.994
		c0-1.98-0.265-4.23-0.795-6.754c-0.53-2.521-1.173-4.572-1.927-6.15C106.396,259.109,105.312,258.285,103.921,258.236z"/>
	<path d="M145.606,250.353c1.344,0,2.015,0.954,2.015,2.864c0,0.023,0,0.225,0,0.602c-0.023,0.377-0.035,0.684-0.035,0.918
		c0,1.273,0.377,1.91,1.131,1.91c0.4,0,1.025-0.508,1.874-1.521c1.272-1.461,2.875-2.621,4.808-3.482
		c1.933-0.859,3.913-1.29,5.94-1.29c3.936,0,6.67,1.438,8.203,4.313c0.589,1.061,1.072,1.592,1.45,1.592
		c0.259,0,0.872-0.473,1.838-1.414c3.064-2.994,6.541-4.491,10.43-4.491c3.041,0,5.527,0.836,7.46,2.51
		c2.027,1.744,3.041,4.361,3.041,7.85c0,0.754-0.024,2.027-0.071,3.818c-0.047,0.613-0.07,2.463-0.07,5.551
		c0,1.979-0.013,3.371-0.035,4.172c-0.024,0.494-0.036,0.848-0.036,1.061c0,1.508,0.472,2.828,1.415,3.959
		c0.565,0.684,0.913,1.139,1.043,1.361c0.129,0.225,0.194,0.525,0.194,0.902c0,3.018-3.548,4.525-10.643,4.525
		c-3.135,0-5.663-0.377-7.584-1.131s-2.881-1.744-2.881-2.971c0-0.471,0.065-0.83,0.195-1.078c0.129-0.248,0.583-0.902,1.361-1.963
		c0.729-0.965,1.096-4.184,1.096-9.652c0-3.182-0.225-5.396-0.672-6.646c-0.519-1.484-1.556-2.227-3.111-2.227
		c-0.778,0-1.467,0.242-2.068,0.725s-0.996,1.09-1.184,1.82c-0.212,0.848-0.331,3.111-0.354,6.789
		c0.071,3.959,0.195,6.363,0.372,7.213c0.177,0.848,0.771,2.027,1.785,3.535c0.235,0.354,0.354,0.801,0.354,1.344
		c0,2.805-3.666,4.207-10.996,4.207c-4.408,0-7.378-0.33-8.91-0.99c-1.226-0.518-1.838-1.438-1.838-2.758
		c0-0.59,0.076-1.002,0.23-1.238c0.153-0.234,0.677-0.777,1.573-1.625c0.518-0.496,0.854-0.961,1.007-1.396
		c0.153-0.438,0.265-1.232,0.336-2.387c0.165-2.594,0.248-5.209,0.248-7.85c0-4.619-1.179-6.93-3.536-6.93
		c-1.768,0-2.817,0.99-3.146,2.971c-0.283,1.861-0.424,4.525-0.424,7.99c0,2.592,0.053,4.289,0.159,5.09
		c0.106,0.803,0.395,1.639,0.866,2.512c0.565,1.014,0.849,1.838,0.849,2.475c0,1.531-1.073,2.594-3.218,3.182
		c-2.333,0.637-4.903,0.955-7.708,0.955c-3.63,0-6.293-0.289-7.99-0.867c-1.697-0.576-2.546-1.49-2.546-2.74
		c0-0.471,0.112-0.871,0.336-1.201c0.224-0.33,0.736-0.85,1.538-1.557c1.061-0.965,1.673-2.297,1.838-3.994
		c0.259-2.922,0.389-5.951,0.389-9.086c0-2.24-0.112-3.801-0.336-4.686c-0.225-0.885-0.702-1.596-1.432-2.139
		c-0.707-0.543-1.161-0.955-1.361-1.238s-0.3-0.672-0.3-1.166c0-1.58,1.237-2.828,3.712-3.748
		C138.169,251.461,142.637,250.376,145.606,250.353z"/>
	<path d="M215.435,250.353c1.344,0,2.016,0.954,2.016,2.864c0,0.023,0,0.225,0,0.602c-0.024,0.377-0.036,0.684-0.036,0.918
		c0,1.273,0.377,1.91,1.132,1.91c0.4,0,1.025-0.508,1.874-1.521c1.272-1.461,2.875-2.621,4.809-3.482
		c1.932-0.859,3.912-1.29,5.939-1.29c3.937,0,6.67,1.438,8.203,4.313c0.589,1.061,1.072,1.592,1.449,1.592
		c0.259,0,0.872-0.473,1.839-1.414c3.063-2.994,6.54-4.491,10.43-4.491c3.041,0,5.527,0.836,7.46,2.51
		c2.027,1.744,3.041,4.361,3.041,7.85c0,0.754-0.024,2.027-0.071,3.818c-0.047,0.613-0.07,2.463-0.07,5.551
		c0,1.979-0.013,3.371-0.035,4.172c-0.024,0.494-0.036,0.848-0.036,1.061c0,1.508,0.472,2.828,1.415,3.959
		c0.565,0.684,0.913,1.139,1.043,1.361c0.129,0.225,0.194,0.525,0.194,0.902c0,3.018-3.548,4.525-10.643,4.525
		c-3.135,0-5.663-0.377-7.584-1.131s-2.881-1.744-2.881-2.971c0-0.471,0.064-0.83,0.194-1.078c0.129-0.248,0.583-0.902,1.361-1.963
		c0.729-0.965,1.096-4.184,1.096-9.652c0-3.182-0.225-5.396-0.672-6.646c-0.519-1.484-1.556-2.227-3.111-2.227
		c-0.777,0-1.467,0.242-2.068,0.725c-0.601,0.482-0.996,1.09-1.185,1.82c-0.212,0.848-0.33,3.111-0.354,6.789
		c0.071,3.959,0.194,6.363,0.371,7.213c0.177,0.848,0.772,2.027,1.786,3.535c0.235,0.354,0.354,0.801,0.354,1.344
		c0,2.805-3.666,4.207-10.996,4.207c-4.408,0-7.378-0.33-8.909-0.99c-1.227-0.518-1.839-1.438-1.839-2.758
		c0-0.59,0.076-1.002,0.229-1.238c0.153-0.234,0.678-0.777,1.573-1.625c0.519-0.496,0.854-0.961,1.008-1.396
		c0.153-0.438,0.266-1.232,0.336-2.387c0.165-2.594,0.248-5.209,0.248-7.85c0-4.619-1.18-6.93-3.536-6.93
		c-1.768,0-2.816,0.99-3.146,2.971c-0.283,1.861-0.425,4.525-0.425,7.99c0,2.592,0.054,4.289,0.159,5.09
		c0.106,0.803,0.395,1.639,0.866,2.512c0.566,1.014,0.849,1.838,0.849,2.475c0,1.531-1.072,2.594-3.217,3.182
		c-2.334,0.637-4.903,0.955-7.708,0.955c-3.63,0-6.293-0.289-7.99-0.867c-1.697-0.576-2.546-1.49-2.546-2.74
		c0-0.471,0.111-0.871,0.336-1.201c0.224-0.33,0.736-0.85,1.538-1.557c1.061-0.965,1.673-2.297,1.839-3.994
		c0.259-2.922,0.389-5.951,0.389-9.086c0-2.24-0.112-3.801-0.336-4.686c-0.225-0.885-0.702-1.596-1.432-2.139
		c-0.707-0.543-1.161-0.955-1.361-1.238c-0.201-0.283-0.301-0.672-0.301-1.166c0-1.58,1.237-2.828,3.712-3.748
		C207.998,251.461,212.465,250.376,215.435,250.353z"/>
	<path d="M287.49,252.121v19.162c0,4.102,1.355,6.152,4.065,6.152c0.684,0,1.355-0.195,2.016-0.584s1.119-0.865,1.379-1.432
		c0.519-1.131,0.778-3.652,0.778-7.566c0-3.865-0.13-6.506-0.39-7.92c-0.094-0.588-0.26-1.02-0.495-1.289
		c-0.235-0.271-0.684-0.584-1.343-0.938c-1.344-0.707-2.016-1.604-2.016-2.688c0-1.461,1.154-2.475,3.465-3.041
		c4.384-1.084,8.709-1.625,12.976-1.625c2.381,0,3.571,1.26,3.571,3.784c0,0.258-0.013,0.789-0.035,1.59
		c-0.048,1.131-0.083,2.51-0.106,4.137v15.592c0,0.803,0.684,1.533,2.051,2.193c1.154,0.564,1.732,1.391,1.732,2.475
		c0,2.121-2.511,3.76-7.531,4.914c-2.946,0.684-5.798,1.025-8.556,1.025c-1.132,0-1.904-0.131-2.316-0.389
		c-0.412-0.26-0.653-0.766-0.725-1.521c-0.118-1.461-0.565-2.191-1.344-2.191c-0.282,0-0.542,0.064-0.777,0.195
		c-0.236,0.129-0.955,0.605-2.157,1.432c-2.381,1.625-4.938,2.439-7.672,2.439c-4.525,0-7.72-1.309-9.581-3.926
		c-1.58-2.191-2.369-5.879-2.369-11.066c0-1.932,0.012-3.582,0.035-4.949c0-0.801,0-1.344,0-1.627c0-2.025-0.183-3.518-0.548-4.473
		c-0.366-0.953-1.031-1.701-1.998-2.244c-0.919-0.471-1.502-0.848-1.75-1.131c-0.247-0.283-0.371-0.672-0.371-1.168
		c0-1.791,1.355-2.98,4.066-3.57c4.619-1.014,9.239-1.52,13.859-1.52C286.795,250.353,287.49,250.941,287.49,252.121z"/>
	<path d="M360.076,263.152l0.495,12.445c0.047,0.941,0.194,1.639,0.441,2.086c0.248,0.447,0.973,1.307,2.175,2.58
		c0.354,0.377,0.53,0.908,0.53,1.592c0,1.555-0.932,2.639-2.793,3.252c-1.862,0.613-5.186,0.92-9.971,0.92
		c-3.253,0-5.551-0.283-6.895-0.85c-1.391-0.588-2.086-1.543-2.086-2.863c0-0.471,0.071-0.818,0.212-1.043
		c0.142-0.225,0.613-0.771,1.415-1.645c0.942-0.99,1.414-4.289,1.414-9.898c0-3.254-0.378-5.658-1.132-7.213
		c-0.613-1.25-1.744-1.875-3.394-1.875c-1.58,0-2.664,0.508-3.253,1.521c-0.59,1.014-0.884,2.852-0.884,5.516v7
		c0,1.391,0.088,2.346,0.265,2.863c0.177,0.52,0.761,1.521,1.75,3.006c0.26,0.424,0.39,0.908,0.39,1.449
		c0,1.391-0.967,2.416-2.899,3.076c-1.934,0.66-4.95,0.99-9.052,0.99c-6.553,0-9.828-1.355-9.828-4.066c0-0.566,0.1-0.996,0.3-1.291
		c0.2-0.293,0.678-0.711,1.433-1.254c0.612-0.447,1.001-0.961,1.166-1.539c0.165-0.576,0.318-1.996,0.46-4.26
		c0.165-2.688,0.247-5.504,0.247-8.449c0-1.627-0.123-2.693-0.371-3.201c-0.247-0.506-0.96-1.125-2.139-1.855
		c-1.014-0.637-1.521-1.414-1.521-2.334c0-0.941,0.412-1.715,1.237-2.316c0.825-0.6,2.522-1.359,5.092-2.279
		c2.263-0.801,4.442-1.479,6.541-2.033c2.098-0.553,3.535-0.831,4.313-0.831c0.707,0,1.302,0.26,1.785,0.778
		c0.482,0.518,0.725,1.131,0.725,1.838c0,0.07-0.012,0.365-0.035,0.885c-0.023,0.188-0.035,0.354-0.035,0.494
		c0,1.131,0.471,1.697,1.414,1.697c0.565,0,1.167-0.447,1.803-1.344c2.027-2.922,4.974-4.384,8.839-4.384
		c2.971,0,5.516,0.779,7.638,2.333c1.484,1.109,2.521,2.41,3.111,3.908C359.569,258.055,359.935,260.252,360.076,263.152z"/>
	<path d="M385.427,252.545v20.541c0,1.627,0.146,2.818,0.441,3.572s0.89,1.449,1.785,2.086c0.73,0.518,1.22,0.961,1.468,1.326
		c0.247,0.365,0.371,0.83,0.371,1.396c0,3.039-3.854,4.561-11.562,4.561c-4.148,0-7.437-0.33-9.864-0.99
		c-0.825-0.236-1.491-0.648-1.997-1.238c-0.508-0.588-0.761-1.26-0.761-2.014c0-0.637,0.129-1.133,0.389-1.486
		s0.92-0.918,1.98-1.697c0.73-0.541,1.249-1.426,1.556-2.65c0.306-1.227,0.459-3.053,0.459-5.48c0-0.777-0.053-2.232-0.158-4.367
		c-0.106-2.133-0.184-3.377-0.23-3.73c-0.142-0.965-0.802-1.707-1.979-2.227c-1.462-0.637-2.192-1.578-2.192-2.828
		c0-1.486,0.955-2.594,2.864-3.324c2.64-1.014,5.468-1.873,8.485-2.58c3.017-0.707,5.351-1.061,7-1.061
		C384.777,250.353,385.427,251.084,385.427,252.545z M378.426,237.059c2.051,0,3.677,0.383,4.879,1.148
		c1.202,0.767,1.804,1.798,1.804,3.094c0,1.815-0.908,3.253-2.723,4.313c-2.876,1.674-6.353,2.511-10.43,2.511
		c-1.722,0-3.089-0.33-4.102-0.99c-1.367-0.849-2.051-2.027-2.051-3.535c0-2.027,1.449-3.618,4.349-4.773
		C373.099,237.648,375.856,237.059,378.426,237.059z"/>
	<path d="M412.579,259.369v11.949c0,1.414,0.348,2.57,1.043,3.465c0.695,0.896,1.585,1.344,2.67,1.344
		c0.919,0,2.133-0.424,3.642-1.273c0.354-0.211,0.707-0.316,1.061-0.316c0.565,0,1.084,0.342,1.556,1.025s0.707,1.426,0.707,2.227
		c0,1.461-0.802,2.863-2.404,4.207c-3.347,2.852-7.401,4.279-12.162,4.279c-3.771,0-6.801-1.066-9.087-3.201
		c-2.286-2.133-3.43-4.943-3.43-8.432v-16.334c0-0.543-0.064-0.879-0.194-1.008c-0.13-0.131-0.466-0.195-1.008-0.195h-3.642
		c-0.684,0-1.119-0.111-1.308-0.336c-0.188-0.223-0.283-0.748-0.283-1.572v-1.557c0.023-0.707,0.295-1.225,0.813-1.555
		l16.193-10.183c0.4-0.212,0.896-0.318,1.484-0.318h2.864c0.589,0,0.983,0.136,1.185,0.406c0.199,0.271,0.3,0.808,0.3,1.609v4.772
		c0,0.707,0.112,1.167,0.336,1.379s0.701,0.318,1.433,0.318h6.54c0.872,0,1.438,0.159,1.697,0.477
		c0.26,0.318,0.389,0.996,0.389,2.033v2.086c0,1.131-0.165,1.916-0.494,2.352c-0.331,0.436-0.932,0.654-1.804,0.654h-6.399
		c-0.66,0-1.108,0.117-1.344,0.354S412.579,258.709,412.579,259.369z"/>
	<path d="M458.79,267.5l-4.667,12.834c-1.155,3.184-2.316,5.781-3.482,7.797c-1.167,2.016-2.493,3.73-3.978,5.145
		c-3.064,2.922-6.753,4.383-11.066,4.383c-3.489,0-6.317-0.918-8.486-2.758c-1.674-1.414-2.51-3.217-2.51-5.408
		c0-1.816,0.583-3.342,1.75-4.578c1.167-1.238,2.599-1.857,4.296-1.857s3.063,0.566,4.102,1.697c0.494,0.52,0.824,0.979,0.989,1.379
		s0.412,1.285,0.743,2.652c0.259,1.037,0.849,1.555,1.768,1.555c0.73,0,1.344-0.318,1.839-0.953
		c0.494-0.637,0.742-1.428,0.742-2.369c0-1.109-0.613-2.959-1.839-5.551l-8.521-18.139c-0.896-1.885-1.568-3.064-2.016-3.535
		c-0.448-0.471-1.438-1.049-2.97-1.732c-0.472-0.189-0.878-0.561-1.22-1.113c-0.342-0.555-0.513-1.09-0.513-1.609
		c0-2.098,2.086-3.523,6.258-4.277c2.781-0.496,5.951-0.744,9.511-0.744c2.498,0,4.467,0.259,5.904,0.779
		c1.933,0.684,2.899,1.85,2.899,3.5c0,0.59-0.271,1.285-0.813,2.086c-0.519,0.754-0.777,1.426-0.777,2.016
		c0,0.564,0.124,1.154,0.371,1.768c0.248,0.613,0.771,1.65,1.573,3.111c0.896,1.65,1.686,2.475,2.369,2.475
		c0.73,0,1.485-0.725,2.263-2.174c0.778-1.449,1.167-2.848,1.167-4.189c0-1.084-0.295-1.969-0.884-2.652
		c-0.896-1.061-1.344-1.969-1.344-2.723c0-1.201,0.801-2.162,2.404-2.881c1.603-0.719,3.748-1.079,6.435-1.079
		c4.997,0,7.495,1.202,7.495,3.606c0,0.873-0.253,1.574-0.76,2.104c-0.507,0.531-1.432,1.031-2.775,1.502
		c-1.132,0.426-2.027,1.133-2.688,2.123C461.323,261.266,460.134,263.871,458.79,267.5z"/>
</g>
<g enable-background="new    ">
	<path d="M175.733,355.559v-18.598c0-2.404-0.166-3.93-0.495-4.578c-0.331-0.648-1.226-1.174-2.687-1.574
		c-2.122-0.613-3.182-1.674-3.182-3.182c0-1.061,0.447-1.875,1.344-2.439c0.896-0.566,2.192-0.85,3.889-0.85
		c0.565,0,1.968,0.035,4.207,0.107h2.122c3.912-0.023,6.205-0.055,6.876-0.09c0.672-0.035,3.07-0.24,7.195-0.619
		c1.367-0.141,2.616-0.211,3.748-0.211c3.865,0,7.307,0.789,10.324,2.369c5.256,2.734,7.884,7.07,7.884,13.01
		c0,4.809-1.838,8.662-5.516,11.562c-3.465,2.711-7.661,4.066-12.587,4.066c-1.25,0-2.781-0.084-4.596-0.248
		c-0.967-0.07-1.568-0.105-1.803-0.105c-0.684,0-1.025,0.389-1.025,1.166v0.213l0.248,5.797c0.047,1.133,0.253,1.975,0.619,2.529
		c0.365,0.553,1.114,1.125,2.245,1.715c1.532,0.824,2.298,1.721,2.298,2.686c0,1.486-1.131,2.629-3.394,3.43
		s-5.469,1.203-9.617,1.203c-8.721,0-13.082-1.496-13.082-4.49c0-0.707,0.188-1.25,0.566-1.627c0.376-0.377,1.26-0.92,2.651-1.627
		c0.849-0.447,1.344-1.072,1.485-1.873C175.591,362.5,175.685,359.918,175.733,355.559z M191.678,332.471v12.021
		c0,0.918,0.2,1.473,0.601,1.66c0.684,0.33,1.543,0.496,2.581,0.496c1.556,0,2.864-0.436,3.925-1.309
		c1.532-1.25,2.298-3.346,2.298-6.293c0-3.064-0.896-5.279-2.687-6.646c-1.131-0.873-2.499-1.309-4.101-1.309
		C192.55,331.092,191.678,331.551,191.678,332.471z"/>
	<path d="M239.162,336.961c4.313,0,8.097,1.119,11.349,3.357c2.333,1.604,4.208,3.689,5.622,6.26
		c1.461,2.686,2.191,5.492,2.191,8.414c0,5.115-2.346,9.463-7.035,13.047c-4.479,3.418-9.605,5.127-15.38,5.127
		c-5.634,0-10.195-1.604-13.683-4.809c-3.394-3.111-5.091-7.166-5.091-12.164c0-5.562,2.074-10.111,6.223-13.646
		C227.694,338.822,232.962,336.961,239.162,336.961z M236.333,345.127c-1.038,0-1.868,0.385-2.493,1.15s-0.937,1.785-0.937,3.059
		c0,1.414,0.265,3.34,0.796,5.779c0.53,2.439,1.161,4.604,1.892,6.488c0.73,1.934,1.92,2.898,3.571,2.898
		c2.098,0,3.146-1.33,3.146-3.994c0-1.98-0.265-4.23-0.795-6.754c-0.53-2.521-1.173-4.572-1.927-6.15
		C238.808,346,237.724,345.176,236.333,345.127z"/>
	<path d="M282.756,336.961c4.312,0,8.096,1.119,11.349,3.357c2.333,1.604,4.208,3.689,5.622,6.26
		c1.461,2.686,2.191,5.492,2.191,8.414c0,5.115-2.346,9.463-7.035,13.047c-4.479,3.418-9.605,5.127-15.381,5.127
		c-5.633,0-10.194-1.604-13.682-4.809c-3.395-3.111-5.092-7.166-5.092-12.164c0-5.562,2.074-10.111,6.223-13.646
		C271.287,338.822,276.556,336.961,282.756,336.961z M279.927,345.127c-1.038,0-1.868,0.385-2.493,1.15
		c-0.624,0.766-0.937,1.785-0.937,3.059c0,1.414,0.265,3.34,0.796,5.779c0.53,2.439,1.16,4.604,1.892,6.488
		c0.729,1.934,1.921,2.898,3.571,2.898c2.098,0,3.146-1.33,3.146-3.994c0-1.98-0.266-4.23-0.796-6.754
		c-0.53-2.521-1.173-4.572-1.927-6.15C282.402,346,281.317,345.176,279.927,345.127z"/>
	<path d="M324.652,344.174v11.348c0,5.021,0.076,7.945,0.23,8.77c0.152,0.824,0.736,1.461,1.75,1.908
		c0.871,0.379,1.455,0.732,1.75,1.061c0.295,0.332,0.441,0.803,0.441,1.416c0,0.777-0.277,1.484-0.83,2.121
		c-0.555,0.635-1.291,1.084-2.211,1.344c-1.697,0.518-4.561,0.777-8.592,0.777c-4.549,0-7.742-0.342-9.58-1.025
		c-0.85-0.307-1.545-0.783-2.086-1.432c-0.543-0.648-0.814-1.326-0.814-2.033c0-0.566,0.147-1.002,0.443-1.309
		c0.294-0.307,0.936-0.672,1.926-1.096c0.92-0.4,1.485-1.496,1.697-3.289c0.377-3.062,0.566-7.424,0.566-13.082
		c0-5.75-0.166-9.451-0.496-11.102c-0.33-1.648-1.154-2.875-2.475-3.676c-0.99-0.566-1.668-1.102-2.033-1.609
		c-0.365-0.506-0.547-1.125-0.547-1.855c0-1.154,0.553-2.162,1.661-3.023c1.107-0.859,2.876-1.656,5.304-2.387
		c1.626-0.494,3.734-0.967,6.328-1.414s4.479-0.672,5.658-0.672c1.861,0,2.793,1.154,2.793,3.465c0,0.754-0.119,2.486-0.354,5.197
		C324.877,336.795,324.699,340.662,324.652,344.174z"/>
</g>
</svg>
