<?xml version="1.0" encoding="utf-8"?>
<!-- Generator: Adobe Illustrator 16.0.3, SVG Export Plug-In . SVG Version: 6.00 Build 0)  -->
<!DOCTYPE svg PUBLIC "-//W3C//DTD SVG 1.1//EN" "http://www.w3.org/Graphics/SVG/1.1/DTD/svg11.dtd">
<svg version="1.1" id="Layer_1" xmlns="http://www.w3.org/2000/svg" xmlns:xlink="http://www.w3.org/1999/xlink" x="0px" y="0px"
	 width="582.767px" height="77px" viewBox="0 0 582.767 77" enable-background="new 0 0 582.767 77" xml:space="preserve">
<g>
	<defs>
		<rect id="SVGID_1_" x="-0.125" width="582.892" height="77"/>
	</defs>
	<clipPath id="SVGID_2_">
		<use xlink:href="#SVGID_1_"  overflow="visible"/>
	</clipPath>
	<rect x="-0.125" clip-path="url(#SVGID_2_)" fill="#FFFFFF" width="488.566" height="35.228"/>
</g>
<g>
	<defs>
		<rect id="SVGID_3_" width="582.767" height="77"/>
	</defs>
	<clipPath id="SVGID_4_">
		<use xlink:href="#SVGID_3_"  overflow="visible"/>
	</clipPath>
	<rect clip-path="url(#SVGID_4_)" fill="#FFFFFF" width="582.767" height="77"/>
</g>
<g>
	<defs>
		<rect id="SVGID_5_" x="-23" y="-19" width="725.386" height="216.386"/>
	</defs>
	<clipPath id="SVGID_6_">
		<use xlink:href="#SVGID_5_"  overflow="visible"/>
	</clipPath>
	<path clip-path="url(#SVGID_6_)" fill="#E6E6E6" d="M157.445,57.875H0.125v19h157.32V57.875z M157.445,38.625H0.125v19h157.32
		V38.625z M157.445,19.375H0.125v19h157.32V19.375z M582.642,0.125h-84.789v19h84.789V0.125z M497.603,0.125h-84.79v19h84.79V0.125z
		 M412.563,0.125h-84.789v19h84.789V0.125z M327.524,0.125h-84.789v19h84.789V0.125z M242.485,0.125h-84.79v19h84.79V0.125z
		 M157.445,0.125H0.125v19h157.32V0.125z"/>
	<path clip-path="url(#SVGID_6_)" fill="none" stroke="#CDCDCD" stroke-width="0.25" stroke-miterlimit="10" d="M582.767,0v77V0z"/>
	<path clip-path="url(#SVGID_6_)" fill="none" stroke="#CDCDCD" stroke-width="0.25" stroke-miterlimit="10" d="M497.728,0v77V0z"/>
	<path clip-path="url(#SVGID_6_)" fill="none" stroke="#CDCDCD" stroke-width="0.25" stroke-miterlimit="10" d="M412.688,0v77V0z"/>
	<path clip-path="url(#SVGID_6_)" fill="none" stroke="#CDCDCD" stroke-width="0.25" stroke-miterlimit="10" d="M327.649,0v77V0z"/>
	<path clip-path="url(#SVGID_6_)" fill="none" stroke="#CDCDCD" stroke-width="0.25" stroke-miterlimit="10" d="M242.61,0v77V0z"/>
	<path clip-path="url(#SVGID_6_)" fill="none" stroke="#CDCDCD" stroke-width="0.25" stroke-miterlimit="10" d="M157.57,0v77V0z"/>
	<path clip-path="url(#SVGID_6_)" fill="none" stroke="#CDCDCD" stroke-width="0.25" stroke-miterlimit="10" d="M0,0v77V0z"/>
	<path clip-path="url(#SVGID_6_)" fill="none" stroke="#CDCDCD" stroke-width="0.25" stroke-miterlimit="10" d="M-0.125,77h583.017
		H-0.125z"/>
	<path clip-path="url(#SVGID_6_)" fill="none" stroke="#CDCDCD" stroke-width="0.25" stroke-miterlimit="10" d="M-0.125,57.75
		h583.017H-0.125z"/>
	<path clip-path="url(#SVGID_6_)" fill="none" stroke="#CDCDCD" stroke-width="0.25" stroke-miterlimit="10" d="M-0.125,38.5
		h583.017H-0.125z"/>
	<path clip-path="url(#SVGID_6_)" fill="none" stroke="#CDCDCD" stroke-width="0.25" stroke-miterlimit="10" d="M-0.125,19.25
		h583.017H-0.125z"/>
	<path clip-path="url(#SVGID_6_)" fill="none" stroke="#CDCDCD" stroke-width="0.25" stroke-miterlimit="10" d="M-0.125,0h583.017
		H-0.125z"/>
</g>
<g>
	<defs>
		<rect id="SVGID_7_" x="157.695" y="0.125" width="84.79" height="19"/>
	</defs>
	<clipPath id="SVGID_8_">
		<use xlink:href="#SVGID_7_"  overflow="visible"/>
	</clipPath>
	<g clip-path="url(#SVGID_8_)">
		<text transform="matrix(1 0 0 1 168.7231 15.1245)" font-family="'HelveticaNeue-Bold'" font-size="14">1 session</text>
	</g>
</g>
<g>
	<defs>
		<rect id="SVGID_9_" x="242.735" y="0.125" width="84.789" height="19"/>
	</defs>
	<clipPath id="SVGID_10_">
		<use xlink:href="#SVGID_9_"  overflow="visible"/>
	</clipPath>
	<g clip-path="url(#SVGID_10_)">
		<text transform="matrix(1 0 0 1 257.9062 15.1245)" font-family="'HelveticaNeue-Bold'" font-size="14">1 month</text>
	</g>
</g>
<g>
	<defs>
		<rect id="SVGID_11_" x="327.774" y="0.125" width="84.789" height="19"/>
	</defs>
	<clipPath id="SVGID_12_">
		<use xlink:href="#SVGID_11_"  overflow="visible"/>
	</clipPath>
	<g clip-path="url(#SVGID_12_)">
		<text transform="matrix(1 0 0 1 339.186 15.1245)" font-family="'HelveticaNeue-Bold'" font-size="14">3 months</text>
	</g>
</g>
<g>
	<defs>
		<rect id="SVGID_13_" x="412.813" y="0.125" width="84.79" height="19"/>
	</defs>
	<clipPath id="SVGID_14_">
		<use xlink:href="#SVGID_13_"  overflow="visible"/>
	</clipPath>
	<g clip-path="url(#SVGID_14_)">
		<text transform="matrix(1 0 0 1 424.2271 15.1245)" font-family="'HelveticaNeue-Bold'" font-size="14">6 months</text>
	</g>
</g>
<g>
	<defs>
		<rect id="SVGID_15_" x="497.853" y="0.125" width="84.789" height="19"/>
	</defs>
	<clipPath id="SVGID_16_">
		<use xlink:href="#SVGID_15_"  overflow="visible"/>
	</clipPath>
	<g clip-path="url(#SVGID_16_)">
		<text transform="matrix(1 0 0 1 520.0181 15.1245)" font-family="'HelveticaNeue-Bold'" font-size="14">1 year</text>
	</g>
</g>
<g>
	<defs>
		<rect id="SVGID_17_" x="0.125" y="19.375" width="157.32" height="19"/>
	</defs>
	<clipPath id="SVGID_18_">
		<use xlink:href="#SVGID_17_"  overflow="visible"/>
	</clipPath>
	<g clip-path="url(#SVGID_18_)">
		<text transform="matrix(1 0 0 1 2.125 34.3745)" font-family="'HelveticaNeue-Bold'" font-size="14">senior, student, youth</text>
	</g>
</g>
<g>
	<defs>
		<rect id="SVGID_19_" x="0.125" y="38.625" width="157.32" height="19"/>
	</defs>
	<clipPath id="SVGID_20_">
		<use xlink:href="#SVGID_19_"  overflow="visible"/>
	</clipPath>
	<g clip-path="url(#SVGID_20_)">
		<text transform="matrix(1 0 0 1 2.125 53.6245)" font-family="'HelveticaNeue-Bold'" font-size="14">adults</text>
	</g>
</g>
<g>
	<defs>
		<rect id="SVGID_21_" x="0.125" y="57.875" width="157.32" height="19"/>
	</defs>
	<clipPath id="SVGID_22_">
		<use xlink:href="#SVGID_21_"  overflow="visible"/>
	</clipPath>
	<g clip-path="url(#SVGID_22_)">
		<text transform="matrix(1 0 0 1 2.125 72.8745)" font-family="'HelveticaNeue-Bold'" font-size="14">family</text>
	</g>
</g>
<g>
	<defs>
		<rect id="SVGID_23_" x="157.695" y="19.375" width="84.79" height="19"/>
	</defs>
	<clipPath id="SVGID_24_">
		<use xlink:href="#SVGID_23_"  overflow="visible"/>
	</clipPath>
	<g clip-path="url(#SVGID_24_)">
		<text transform="matrix(1 0 0 1 205.4565 33.3745)" font-family="'HelveticaNeue'" font-size="14">$2.90</text>
	</g>
</g>
<g>
	<defs>
		<rect id="SVGID_25_" x="242.735" y="19.375" width="84.789" height="19"/>
	</defs>
	<clipPath id="SVGID_26_">
		<use xlink:href="#SVGID_25_"  overflow="visible"/>
	</clipPath>
	<g clip-path="url(#SVGID_26_)">
		<text transform="matrix(1 0 0 1 282.7114 33.3745)" font-family="'HelveticaNeue'" font-size="14">$62.25</text>
	</g>
</g>
<g>
	<defs>
		<rect id="SVGID_27_" x="327.774" y="19.375" width="84.789" height="19"/>
	</defs>
	<clipPath id="SVGID_28_">
		<use xlink:href="#SVGID_27_"  overflow="visible"/>
	</clipPath>
	<g clip-path="url(#SVGID_28_)">
		<text transform="matrix(1 0 0 1 359.9673 33.3745)" font-family="'HelveticaNeue'" font-size="14">$123.50</text>
	</g>
</g>
<g>
	<defs>
		<rect id="SVGID_29_" x="412.813" y="19.375" width="84.79" height="19"/>
	</defs>
	<clipPath id="SVGID_30_">
		<use xlink:href="#SVGID_29_"  overflow="visible"/>
	</clipPath>
	<g clip-path="url(#SVGID_30_)">
		<text transform="matrix(1 0 0 1 445.0063 33.3745)" font-family="'HelveticaNeue'" font-size="14">$229.50</text>
	</g>
</g>
<g>
	<defs>
		<rect id="SVGID_31_" x="497.853" y="19.375" width="84.789" height="19"/>
	</defs>
	<clipPath id="SVGID_32_">
		<use xlink:href="#SVGID_31_"  overflow="visible"/>
	</clipPath>
	<g clip-path="url(#SVGID_32_)">
		<text transform="matrix(1 0 0 1 530.0454 33.3745)" font-family="'HelveticaNeue'" font-size="14">$415.00</text>
	</g>
</g>
<g>
	<defs>
		<rect id="SVGID_33_" x="157.695" y="38.625" width="84.79" height="19"/>
	</defs>
	<clipPath id="SVGID_34_">
		<use xlink:href="#SVGID_33_"  overflow="visible"/>
	</clipPath>
	<g clip-path="url(#SVGID_34_)">
		<text transform="matrix(1 0 0 1 205.4565 52.6245)" font-family="'HelveticaNeue'" font-size="14">$4.85</text>
	</g>
</g>
<g>
	<defs>
		<rect id="SVGID_35_" x="242.735" y="38.625" width="84.789" height="19"/>
	</defs>
	<clipPath id="SVGID_36_">
		<use xlink:href="#SVGID_35_"  overflow="visible"/>
	</clipPath>
	<g clip-path="url(#SVGID_36_)">
		<text transform="matrix(1 0 0 1 282.7114 52.6245)" font-family="'HelveticaNeue'" font-size="14">$76.50</text>
	</g>
</g>
<g>
	<defs>
		<rect id="SVGID_37_" x="327.774" y="38.625" width="84.789" height="19"/>
	</defs>
	<clipPath id="SVGID_38_">
		<use xlink:href="#SVGID_37_"  overflow="visible"/>
	</clipPath>
	<g clip-path="url(#SVGID_38_)">
		<text transform="matrix(1 0 0 1 359.9673 52.6245)" font-family="'HelveticaNeue'" font-size="14">$151.50</text>
	</g>
</g>
<g>
	<defs>
		<rect id="SVGID_39_" x="412.813" y="38.625" width="84.79" height="19"/>
	</defs>
	<clipPath id="SVGID_40_">
		<use xlink:href="#SVGID_39_"  overflow="visible"/>
	</clipPath>
	<g clip-path="url(#SVGID_40_)">
		<text transform="matrix(1 0 0 1 445.0063 52.6245)" font-family="'HelveticaNeue'" font-size="14">$280.75</text>
	</g>
</g>
<g>
	<defs>
		<rect id="SVGID_41_" x="497.853" y="38.625" width="84.789" height="19"/>
	</defs>
	<clipPath id="SVGID_42_">
		<use xlink:href="#SVGID_41_"  overflow="visible"/>
	</clipPath>
	<g clip-path="url(#SVGID_42_)">
		<text transform="matrix(1 0 0 1 530.0454 52.6245)" font-family="'HelveticaNeue'" font-size="14">$510.50</text>
	</g>
</g>
<g>
	<defs>
		<rect id="SVGID_43_" x="157.695" y="57.875" width="84.79" height="19"/>
	</defs>
	<clipPath id="SVGID_44_">
		<use xlink:href="#SVGID_43_"  overflow="visible"/>
	</clipPath>
	<g clip-path="url(#SVGID_44_)">
		<text transform="matrix(1 0 0 1 205.4565 71.8745)" font-family="'HelveticaNeue'" font-size="14">$3.75</text>
	</g>
</g>
<g>
	<defs>
		<rect id="SVGID_45_" x="242.735" y="57.875" width="84.789" height="19"/>
	</defs>
	<clipPath id="SVGID_46_">
		<use xlink:href="#SVGID_45_"  overflow="visible"/>
	</clipPath>
	<g clip-path="url(#SVGID_46_)">
		<text transform="matrix(1 0 0 1 274.9282 71.8745)" font-family="'HelveticaNeue'" font-size="14">$101.75</text>
	</g>
</g>
<g>
	<defs>
		<rect id="SVGID_47_" x="327.774" y="57.875" width="84.789" height="19"/>
	</defs>
	<clipPath id="SVGID_48_">
		<use xlink:href="#SVGID_47_"  overflow="visible"/>
	</clipPath>
	<g clip-path="url(#SVGID_48_)">
		<text transform="matrix(1 0 0 1 359.9673 71.8745)" font-family="'HelveticaNeue'" font-size="14">$275.00</text>
	</g>
</g>
<g>
	<defs>
		<rect id="SVGID_49_" x="412.813" y="57.875" width="84.79" height="19"/>
	</defs>
	<clipPath id="SVGID_50_">
		<use xlink:href="#SVGID_49_"  overflow="visible"/>
	</clipPath>
	<g clip-path="url(#SVGID_50_)">
		<text transform="matrix(1 0 0 1 445.0063 71.8745)" font-family="'HelveticaNeue'" font-size="14">$504.75</text>
	</g>
</g>
<g>
	<defs>
		<rect id="SVGID_51_" x="497.853" y="57.875" width="84.789" height="19"/>
	</defs>
	<clipPath id="SVGID_52_">
		<use xlink:href="#SVGID_51_"  overflow="visible"/>
	</clipPath>
	<g clip-path="url(#SVGID_52_)">
		<text transform="matrix(1 0 0 1 530.0454 71.8745)" font-family="'HelveticaNeue'" font-size="14">$919.50</text>
	</g>
</g>
</svg>
