<?xml version="1.0" encoding="utf-8"?>
<!-- Generator: Adobe Illustrator 16.0.3, SVG Export Plug-In . SVG Version: 6.00 Build 0)  -->
<!DOCTYPE svg PUBLIC "-//W3C//DTD SVG 1.1//EN" "http://www.w3.org/Graphics/SVG/1.1/DTD/svg11.dtd">
<svg version="1.1" id="Layer_1" xmlns="http://www.w3.org/2000/svg" xmlns:xlink="http://www.w3.org/1999/xlink" x="0px" y="0px"
	 width="503.75px" height="379.157px" viewBox="0 0 503.75 379.157" enable-background="new 0 0 503.75 379.157"
	 xml:space="preserve">
<path d="M431.821,0h71.93v12.042h-71.93V0z M359.893,0h71.929v12.042h-71.929V0z M287.964,0h71.929v12.042h-71.929V0z M216.036,0
	h71.929v12.042h-71.929V0z M144.107,0h71.929v12.042h-71.929V0z M72.179,0h71.929v12.042H72.179V0z M0.25,0h71.929v12.042H0.25V0z"
	/>
<path fill="#E6E7E8" d="M287.964,330.462h71.929v48.695h-71.929V330.462z M216.036,330.462h71.929v48.695h-71.929V330.462z
	 M144.107,330.462h71.929v48.695h-71.929V330.462z M72.179,330.462h71.929v48.695H72.179V330.462z M0.25,330.462h71.929v48.695H0.25
	V330.462z M144.107,273.017h71.929v57.445h-71.929V273.017z M287.964,215.572h71.929v57.444h-71.929V215.572z M144.107,215.572
	h71.929v57.444h-71.929V215.572z M0.25,215.572h71.929v57.444H0.25V215.572z M287.964,166.877h71.929v48.695h-71.929V166.877z
	 M216.036,166.877h71.929v48.695h-71.929V166.877z M144.107,166.877h71.929v48.695h-71.929V166.877z M72.179,166.877h71.929v48.695
	H72.179V166.877z M0.25,166.877h71.929v48.695H0.25V166.877z M431.821,109.432h71.93v57.445h-71.93V109.432z M359.893,109.432
	h71.929v57.445h-71.929V109.432z M287.964,60.737h71.929v48.695h-71.929V60.737z M144.107,60.737h71.929v48.695h-71.929V60.737z
	 M72.179,60.737h71.929v48.695H72.179V60.737z M0.25,60.737h71.929v48.695H0.25V60.737z M287.964,12.042h71.929v48.695h-71.929
	V12.042z M144.107,12.042h71.929v48.695h-71.929V12.042z M0.25,12.042h71.929v48.695H0.25V12.042z"/>
<rect x="216.036" y="60.737" fill="#E6E7E8" width="71.929" height="48.695"/>
<path fill="#E6E7E8" d="M431.821,215.572h71.93v57.444h-71.93V215.572z M359.893,215.572h71.929v57.444h-71.929V215.572z
	 M431.821,166.877h71.93v48.695h-71.93V166.877z M359.893,166.877h71.929v48.695h-71.929V166.877z M216.036,109.432h71.929v57.445
	h-71.929V109.432z M72.179,109.432h71.929v57.445H72.179V109.432z"/>
<path fill="#FFFFFF" d="M431.821,330.462h71.93v48.695h-71.93V330.462z M359.893,330.462h71.929v48.695h-71.929V330.462z
	 M431.821,273.017h71.93v57.445h-71.93V273.017z M359.893,273.017h71.929v57.445h-71.929V273.017z"/>
<line fill="none" stroke="#000000" stroke-width="0.5" stroke-miterlimit="10" x1="503.75" y1="215.322" x2="503.75" y2="167.127"/>
<line fill="none" stroke="#000000" stroke-width="0.5" stroke-miterlimit="10" x1="359.893" y1="215.572" x2="431.822" y2="215.572"/>
<line fill="none" stroke="#000000" stroke-width="0.5" stroke-miterlimit="10" x1="431.822" y1="215.572" x2="504" y2="215.572"/>
<line fill="none" stroke="#000000" stroke-width="0.5" stroke-miterlimit="10" x1="503.75" y1="272.767" x2="503.75" y2="215.822"/>
<line fill="none" stroke="#000000" stroke-width="0.5" stroke-miterlimit="10" x1="359.893" y1="273.017" x2="431.822" y2="273.017"/>
<line fill="none" stroke="#000000" stroke-width="0.5" stroke-miterlimit="10" x1="431.822" y1="273.017" x2="504" y2="273.017"/>
<line fill="none" stroke="#000000" stroke-width="0.5" stroke-miterlimit="10" x1="503.75" y1="330.212" x2="503.75" y2="273.267"/>
<line fill="none" stroke="#000000" stroke-width="0.5" stroke-miterlimit="10" x1="359.893" y1="330.462" x2="431.822" y2="330.462"/>
<line fill="none" stroke="#000000" stroke-width="0.5" stroke-miterlimit="10" x1="431.822" y1="330.462" x2="504" y2="330.462"/>
<line fill="none" stroke="#000000" stroke-width="0.5" stroke-miterlimit="10" x1="503.75" y1="378.907" x2="503.75" y2="330.712"/>
<line fill="none" stroke="#000000" stroke-width="0.5" stroke-miterlimit="10" x1="359.893" y1="379.157" x2="431.822" y2="379.157"/>
<line fill="none" stroke="#000000" stroke-width="0.5" stroke-miterlimit="10" x1="431.822" y1="379.157" x2="504" y2="379.157"/>
<line fill="none" stroke="#000000" stroke-width="0.5" stroke-miterlimit="10" x1="0.25" y1="60.487" x2="0.25" y2="12.292"/>
<line fill="none" stroke="#000000" stroke-width="0.5" stroke-miterlimit="10" x1="0.25" y1="109.182" x2="0.25" y2="60.987"/>
<line fill="none" stroke="#000000" stroke-width="0.5" stroke-miterlimit="10" x1="0.25" y1="166.627" x2="0.25" y2="109.682"/>
<line fill="none" stroke="#000000" stroke-width="0.5" stroke-miterlimit="10" x1="72.179" y1="166.627" x2="72.179" y2="109.682"/>
<line fill="none" stroke="#000000" stroke-width="0.5" stroke-miterlimit="10" x1="0.25" y1="215.322" x2="0.25" y2="167.127"/>
<line fill="none" stroke="#000000" stroke-width="0.5" stroke-miterlimit="10" x1="0" y1="215.572" x2="72.179" y2="215.572"/>
<line fill="none" stroke="#000000" stroke-width="0.5" stroke-miterlimit="10" x1="0.25" y1="272.767" x2="0.25" y2="215.822"/>
<line fill="none" stroke="#000000" stroke-width="0.5" stroke-miterlimit="10" x1="0" y1="273.017" x2="72.179" y2="273.017"/>
<line fill="none" stroke="#000000" stroke-width="0.5" stroke-miterlimit="10" x1="0.25" y1="330.212" x2="0.25" y2="273.267"/>
<line fill="none" stroke="#000000" stroke-width="0.5" stroke-miterlimit="10" x1="0" y1="330.462" x2="72.179" y2="330.462"/>
<line fill="none" stroke="#000000" stroke-width="0.5" stroke-miterlimit="10" x1="0.25" y1="378.907" x2="0.25" y2="330.712"/>
<line fill="none" stroke="#000000" stroke-width="0.5" stroke-miterlimit="10" x1="0" y1="379.157" x2="72.179" y2="379.157"/>
<line fill="none" stroke="#000000" stroke-width="0.5" stroke-miterlimit="10" x1="72.179" y1="60.487" x2="72.179" y2="12.292"/>
<line fill="none" stroke="#000000" stroke-width="0.5" stroke-miterlimit="10" x1="216.036" y1="60.487" x2="216.036" y2="12.292"/>
<line fill="none" stroke="#000000" stroke-width="0.5" stroke-miterlimit="10" x1="72.179" y1="109.182" x2="72.179" y2="60.987"/>
<line fill="none" stroke="#000000" stroke-width="0.5" stroke-miterlimit="10" x1="72.179" y1="109.432" x2="144.108" y2="109.432"/>
<line fill="none" stroke="#000000" stroke-width="0.5" stroke-miterlimit="10" x1="287.964" y1="60.487" x2="287.964" y2="12.292"/>
<line fill="none" stroke="#000000" stroke-width="0.5" stroke-miterlimit="10" x1="72.179" y1="166.877" x2="144.108" y2="166.877"/>
<line fill="none" stroke="#000000" stroke-width="0.5" stroke-miterlimit="10" x1="72.179" y1="215.322" x2="72.179" y2="167.127"/>
<line fill="none" stroke="#000000" stroke-width="0.5" stroke-miterlimit="10" x1="144.107" y1="166.877" x2="216.036" y2="166.877"/>
<line fill="none" stroke="#000000" stroke-width="0.5" stroke-miterlimit="10" x1="216.036" y1="166.877" x2="287.965" y2="166.877"/>
<line fill="none" stroke="#000000" stroke-width="0.5" stroke-miterlimit="10" x1="359.893" y1="215.322" x2="359.893" y2="167.127"/>
<line fill="none" stroke="#000000" stroke-width="0.5" stroke-miterlimit="10" x1="72.179" y1="215.572" x2="144.108" y2="215.572"/>
<line fill="none" stroke="#000000" stroke-width="0.5" stroke-miterlimit="10" x1="72.179" y1="272.767" x2="72.179" y2="215.822"/>
<line fill="none" stroke="#000000" stroke-width="0.5" stroke-miterlimit="10" x1="216.036" y1="215.572" x2="287.965" y2="215.572"/>
<line fill="none" stroke="#000000" stroke-width="0.5" stroke-miterlimit="10" x1="287.964" y1="215.572" x2="359.893" y2="215.572"/>
<line fill="none" stroke="#000000" stroke-width="0.5" stroke-miterlimit="10" x1="359.893" y1="272.767" x2="359.893" y2="215.822"/>
<line fill="none" stroke="#000000" stroke-width="0.5" stroke-miterlimit="10" x1="72.179" y1="273.017" x2="144.108" y2="273.017"/>
<line fill="none" stroke="#000000" stroke-width="0.5" stroke-miterlimit="10" x1="72.179" y1="330.212" x2="72.179" y2="273.267"/>
<line fill="none" stroke="#000000" stroke-width="0.5" stroke-miterlimit="10" x1="216.036" y1="273.017" x2="287.965" y2="273.017"/>
<line fill="none" stroke="#000000" stroke-width="0.5" stroke-miterlimit="10" x1="287.964" y1="273.017" x2="359.893" y2="273.017"/>
<line fill="none" stroke="#000000" stroke-width="0.5" stroke-miterlimit="10" x1="359.893" y1="330.212" x2="359.893" y2="273.267"/>
<line fill="none" stroke="#000000" stroke-width="0.5" stroke-miterlimit="10" x1="72.179" y1="330.462" x2="144.108" y2="330.462"/>
<line fill="none" stroke="#000000" stroke-width="0.5" stroke-miterlimit="10" x1="72.179" y1="378.907" x2="72.179" y2="330.712"/>
<line fill="none" stroke="#000000" stroke-width="0.5" stroke-miterlimit="10" x1="216.036" y1="330.462" x2="287.965" y2="330.462"/>
<line fill="none" stroke="#000000" stroke-width="0.5" stroke-miterlimit="10" x1="287.964" y1="330.462" x2="359.893" y2="330.462"/>
<line fill="none" stroke="#000000" stroke-width="0.5" stroke-miterlimit="10" x1="359.893" y1="378.907" x2="359.893" y2="330.712"/>
<line fill="none" stroke="#000000" stroke-width="0.5" stroke-miterlimit="10" x1="72.179" y1="379.157" x2="144.108" y2="379.157"/>
<line fill="none" stroke="#000000" stroke-width="0.5" stroke-miterlimit="10" x1="216.036" y1="379.157" x2="287.965" y2="379.157"/>
<line fill="none" stroke="#000000" stroke-width="0.5" stroke-miterlimit="10" x1="287.964" y1="379.157" x2="359.893" y2="379.157"/>
<line fill="none" stroke="#000000" stroke-width="0.5" stroke-miterlimit="10" x1="144.107" y1="60.487" x2="144.107" y2="12.292"/>
<line fill="none" stroke="#000000" stroke-width="0.5" stroke-miterlimit="10" x1="359.893" y1="60.487" x2="359.893" y2="12.292"/>
<line fill="none" stroke="#000000" stroke-width="0.5" stroke-miterlimit="10" x1="503.75" y1="60.487" x2="503.75" y2="12.292"/>
<line fill="none" stroke="#000000" stroke-width="0.5" stroke-miterlimit="10" x1="144.107" y1="109.182" x2="144.107" y2="60.987"/>
<line fill="none" stroke="#000000" stroke-width="0.5" stroke-miterlimit="10" x1="503.75" y1="109.182" x2="503.75" y2="60.987"/>
<line fill="none" stroke="#000000" stroke-width="0.5" stroke-miterlimit="10" x1="216.036" y1="109.432" x2="287.965" y2="109.432"/>
<line fill="none" stroke="#000000" stroke-width="0.5" stroke-miterlimit="10" x1="431.822" y1="60.487" x2="431.822" y2="12.292"/>
<line fill="none" stroke="#000000" stroke-width="0.5" stroke-miterlimit="10" x1="144.107" y1="109.432" x2="216.036" y2="109.432"/>
<line fill="none" stroke="#000000" stroke-width="0.5" stroke-miterlimit="10" x1="144.107" y1="166.627" x2="144.107" y2="109.682"/>
<line fill="none" stroke="#000000" stroke-width="0.5" stroke-miterlimit="10" x1="216.036" y1="166.627" x2="216.036" y2="109.682"/>
<line fill="none" stroke="#000000" stroke-width="0.5" stroke-miterlimit="10" x1="144.107" y1="215.322" x2="144.107" y2="167.127"/>
<line fill="none" stroke="#000000" stroke-width="0.5" stroke-miterlimit="10" x1="216.036" y1="215.322" x2="216.036" y2="167.127"/>
<line fill="none" stroke="#000000" stroke-width="0.5" stroke-miterlimit="10" x1="144.107" y1="215.572" x2="216.036" y2="215.572"/>
<line fill="none" stroke="#000000" stroke-width="0.5" stroke-miterlimit="10" x1="144.107" y1="272.767" x2="144.107" y2="215.822"/>
<line fill="none" stroke="#000000" stroke-width="0.5" stroke-miterlimit="10" x1="216.036" y1="272.767" x2="216.036" y2="215.822"/>
<line fill="none" stroke="#000000" stroke-width="0.5" stroke-miterlimit="10" x1="144.107" y1="273.017" x2="216.036" y2="273.017"/>
<line fill="none" stroke="#000000" stroke-width="0.5" stroke-miterlimit="10" x1="144.107" y1="330.212" x2="144.107" y2="273.267"/>
<line fill="none" stroke="#000000" stroke-width="0.5" stroke-miterlimit="10" x1="216.036" y1="330.212" x2="216.036" y2="273.267"/>
<line fill="none" stroke="#000000" stroke-width="0.5" stroke-miterlimit="10" x1="144.107" y1="330.462" x2="216.036" y2="330.462"/>
<line fill="none" stroke="#000000" stroke-width="0.5" stroke-miterlimit="10" x1="144.107" y1="378.907" x2="144.107" y2="330.712"/>
<line fill="none" stroke="#000000" stroke-width="0.5" stroke-miterlimit="10" x1="216.036" y1="378.907" x2="216.036" y2="330.712"/>
<line fill="none" stroke="#000000" stroke-width="0.5" stroke-miterlimit="10" x1="144.107" y1="379.157" x2="216.036" y2="379.157"/>
<line fill="none" stroke="#000000" stroke-width="0.5" stroke-miterlimit="10" x1="0" y1="60.737" x2="72.179" y2="60.737"/>
<line fill="none" stroke="#000000" stroke-width="0.5" stroke-miterlimit="10" x1="287.964" y1="109.432" x2="359.893" y2="109.432"/>
<line fill="none" stroke="#000000" stroke-width="0.5" stroke-miterlimit="10" x1="287.964" y1="166.627" x2="287.964" y2="109.682"/>
<line fill="none" stroke="#000000" stroke-width="0.5" stroke-miterlimit="10" x1="359.893" y1="109.432" x2="431.822" y2="109.432"/>
<line fill="none" stroke="#000000" stroke-width="0.5" stroke-miterlimit="10" x1="431.822" y1="109.432" x2="504" y2="109.432"/>
<line fill="none" stroke="#000000" stroke-width="0.5" stroke-miterlimit="10" x1="503.75" y1="166.627" x2="503.75" y2="109.682"/>
<line fill="none" stroke="#000000" stroke-width="0.5" stroke-miterlimit="10" x1="287.964" y1="166.877" x2="359.893" y2="166.877"/>
<line fill="none" stroke="#000000" stroke-width="0.5" stroke-miterlimit="10" x1="359.893" y1="166.877" x2="431.822" y2="166.877"/>
<line fill="none" stroke="#000000" stroke-width="0.5" stroke-miterlimit="10" x1="431.822" y1="166.877" x2="504" y2="166.877"/>
<line fill="none" stroke="#000000" stroke-width="0.5" stroke-miterlimit="10" x1="72.179" y1="60.737" x2="144.108" y2="60.737"/>
<line fill="none" stroke="#000000" stroke-width="0.5" stroke-miterlimit="10" x1="144.107" y1="60.737" x2="216.036" y2="60.737"/>
<line fill="none" stroke="#000000" stroke-width="0.5" stroke-miterlimit="10" x1="216.036" y1="60.737" x2="287.965" y2="60.737"/>
<line fill="none" stroke="#000000" stroke-width="0.5" stroke-miterlimit="10" x1="216.036" y1="109.182" x2="216.036" y2="60.987"/>
<line fill="none" stroke="#000000" stroke-width="0.5" stroke-miterlimit="10" x1="287.964" y1="60.737" x2="359.893" y2="60.737"/>
<line fill="none" stroke="#000000" stroke-width="0.5" stroke-miterlimit="10" x1="287.964" y1="109.182" x2="287.964" y2="60.987"/>
<line fill="none" stroke="#000000" stroke-width="0.5" stroke-miterlimit="10" x1="359.893" y1="60.737" x2="431.822" y2="60.737"/>
<line fill="none" stroke="#000000" stroke-width="0.5" stroke-miterlimit="10" x1="359.893" y1="109.182" x2="359.893" y2="60.987"/>
<line fill="none" stroke="#000000" stroke-width="0.5" stroke-miterlimit="10" x1="431.822" y1="60.737" x2="504" y2="60.737"/>
<line fill="none" stroke="#000000" stroke-width="0.5" stroke-miterlimit="10" x1="431.822" y1="109.182" x2="431.822" y2="60.987"/>
<line fill="none" stroke="#000000" stroke-width="0.5" stroke-miterlimit="10" x1="0" y1="109.432" x2="72.179" y2="109.432"/>
<line fill="none" stroke="#000000" stroke-width="0.5" stroke-miterlimit="10" x1="359.893" y1="166.627" x2="359.893" y2="109.682"/>
<line fill="none" stroke="#000000" stroke-width="0.5" stroke-miterlimit="10" x1="431.822" y1="166.627" x2="431.822" y2="109.682"/>
<line fill="none" stroke="#000000" stroke-width="0.5" stroke-miterlimit="10" x1="0" y1="166.877" x2="72.179" y2="166.877"/>
<line fill="none" stroke="#000000" stroke-width="0.5" stroke-miterlimit="10" x1="287.964" y1="215.322" x2="287.964" y2="167.127"/>
<line fill="none" stroke="#000000" stroke-width="0.5" stroke-miterlimit="10" x1="287.964" y1="272.767" x2="287.964" y2="215.822"/>
<line fill="none" stroke="#000000" stroke-width="0.5" stroke-miterlimit="10" x1="287.964" y1="330.212" x2="287.964" y2="273.267"/>
<line fill="none" stroke="#000000" stroke-width="0.5" stroke-miterlimit="10" x1="287.964" y1="378.907" x2="287.964" y2="330.712"/>
<line fill="none" stroke="#000000" stroke-width="0.5" stroke-miterlimit="10" x1="431.822" y1="215.322" x2="431.822" y2="167.127"/>
<line fill="none" stroke="#000000" stroke-width="0.5" stroke-miterlimit="10" x1="431.822" y1="272.767" x2="431.822" y2="215.822"/>
<line fill="none" stroke="#000000" stroke-width="0.5" stroke-miterlimit="10" x1="431.822" y1="330.212" x2="431.822" y2="273.267"/>
<line fill="none" stroke="#000000" stroke-width="0.5" stroke-miterlimit="10" x1="431.822" y1="378.907" x2="431.822" y2="330.712"/>
<line fill="none" stroke="#000000" stroke-width="0.5" stroke-miterlimit="10" x1="0" y1="0" x2="72.179" y2="0"/>
<line fill="none" stroke="#000000" stroke-width="0.5" stroke-miterlimit="10" x1="0.25" y1="11.792" x2="0.25" y2="0.25"/>
<line fill="none" stroke="#000000" stroke-width="0.5" stroke-miterlimit="10" x1="72.179" y1="0" x2="144.108" y2="0"/>
<line fill="none" stroke="#000000" stroke-width="0.5" stroke-miterlimit="10" x1="144.107" y1="0" x2="216.036" y2="0"/>
<line fill="none" stroke="#000000" stroke-width="0.5" stroke-miterlimit="10" x1="216.036" y1="0" x2="287.965" y2="0"/>
<line fill="none" stroke="#000000" stroke-width="0.5" stroke-miterlimit="10" x1="287.964" y1="0" x2="359.893" y2="0"/>
<line fill="none" stroke="#000000" stroke-width="0.5" stroke-miterlimit="10" x1="359.893" y1="0" x2="431.822" y2="0"/>
<line fill="none" stroke="#000000" stroke-width="0.5" stroke-miterlimit="10" x1="431.822" y1="0" x2="504" y2="0"/>
<line fill="none" stroke="#000000" stroke-width="0.5" stroke-miterlimit="10" x1="503.75" y1="11.792" x2="503.75" y2="0.25"/>
<line fill="none" stroke="#000000" stroke-width="0.5" stroke-miterlimit="10" x1="0" y1="12.042" x2="72.179" y2="12.042"/>
<line fill="none" stroke="#000000" stroke-width="0.5" stroke-miterlimit="10" x1="72.179" y1="12.042" x2="144.108" y2="12.042"/>
<line fill="none" stroke="#000000" stroke-width="0.5" stroke-miterlimit="10" x1="144.107" y1="12.042" x2="216.036" y2="12.042"/>
<line fill="none" stroke="#000000" stroke-width="0.5" stroke-miterlimit="10" x1="216.036" y1="12.042" x2="287.965" y2="12.042"/>
<line fill="none" stroke="#000000" stroke-width="0.5" stroke-miterlimit="10" x1="287.964" y1="12.042" x2="359.893" y2="12.042"/>
<line fill="none" stroke="#000000" stroke-width="0.5" stroke-miterlimit="10" x1="359.893" y1="12.042" x2="431.822" y2="12.042"/>
<line fill="none" stroke="#000000" stroke-width="0.5" stroke-miterlimit="10" x1="431.822" y1="12.042" x2="504" y2="12.042"/>
<line fill="none" stroke="#FFFFFF" stroke-width="1.5" stroke-miterlimit="10" x1="72.179" y1="11.792" x2="72.179" y2="0.25"/>
<line fill="none" stroke="#FFFFFF" stroke-width="1.5" stroke-miterlimit="10" x1="144.107" y1="11.792" x2="144.107" y2="0.25"/>
<line fill="none" stroke="#FFFFFF" stroke-width="1.5" stroke-miterlimit="10" x1="216.036" y1="11.792" x2="216.036" y2="0.25"/>
<line fill="none" stroke="#FFFFFF" stroke-width="1.5" stroke-miterlimit="10" x1="287.964" y1="11.792" x2="287.964" y2="0.25"/>
<line fill="none" stroke="#FFFFFF" stroke-width="1.5" stroke-miterlimit="10" x1="359.893" y1="11.792" x2="359.893" y2="0.25"/>
<line fill="none" stroke="#FFFFFF" stroke-width="1.5" stroke-miterlimit="10" x1="431.822" y1="11.792" x2="431.822" y2="0.25"/>
<text transform="matrix(1 0 0 1 19.9609 9.1616)" fill="#FFFFFF" font-family="'FrutigerLTStd-BlackCn'" font-size="9">Monday</text>
<text transform="matrix(1 0 0 1 91.7266 9.1616)" fill="#FFFFFF" font-family="'FrutigerLTStd-BlackCn'" font-size="9">Tuesday</text>
<text transform="matrix(1 0 0 1 157.0757 9.1616)" fill="#FFFFFF" font-family="'FrutigerLTStd-BlackCn'" font-size="9">Wednesday</text>
<text transform="matrix(1 0 0 1 233.7559 9.1616)" fill="#FFFFFF" font-family="'FrutigerLTStd-BlackCn'" font-size="9">Thursday</text>
<text transform="matrix(1 0 0 1 311.4438 9.1616)" fill="#FFFFFF" font-family="'FrutigerLTStd-BlackCn'" font-size="9">Friday</text>
<text transform="matrix(1 0 0 1 377.7017 9.1616)" fill="#FFFFFF" font-family="'FrutigerLTStd-BlackCn'" font-size="9">Saturday</text>
<text transform="matrix(1 0 0 1 453.0493 9.1616)" fill="#FFFFFF" font-family="'FrutigerLTStd-BlackCn'" font-size="9">Sunday</text>
<text transform="matrix(1 0 0 1 14.8301 22.7017)" font-family="'FrutigerLTStd-BoldCn'" font-size="9.5">Lane Swim</text>
<text transform="matrix(1 0 0 1 16.3027 34.2061)" font-family="'FrutigerLTStd-BoldCn'" font-size="9.5">6:30-8 am</text>
<path d="M19.694,44.979c1.683-1.93,2.519-3.251,2.519-4.135c0-0.599-0.323-1.112-0.979-1.112c-0.38,0-0.894,0.209-1.274,0.513
	l-0.104-0.836c0.57-0.276,1.15-0.399,1.559-0.399c1.027,0,1.673,0.761,1.673,1.673c0,1.16-1.037,2.871-2.472,4.306h2.566v0.723
	h-3.489V44.979z M24.521,44.741c0.285,0.171,0.77,0.352,1.15,0.352c0.846,0,1.378-0.637,1.378-1.502
	c0-0.903-0.513-1.397-1.407-1.397c-0.333,0-0.637,0.076-1.093,0.219v-3.337h3.051v0.685h-2.253v1.854
	c0.209-0.067,0.504-0.105,0.751-0.105c0.979,0,1.825,0.666,1.825,1.978c0,1.378-0.723,2.291-2.139,2.291
	c-0.428,0-0.913-0.095-1.302-0.266L24.521,44.741z M29.042,41.908c0-0.352-0.028-0.703-0.038-1.045h0.77l0.029,0.722h0.019
	c0.257-0.551,0.666-0.789,1.198-0.789c0.513,0,0.894,0.267,1.141,0.761c0.256-0.476,0.627-0.761,1.179-0.761
	c0.836,0,1.407,0.485,1.407,1.55v3.365h-0.798v-3.327c0-0.618-0.266-0.903-0.742-0.903c-0.589,0-0.913,0.361-0.913,1.236v2.995
	h-0.798v-3.327c0-0.618-0.266-0.903-0.742-0.903c-0.589,0-0.913,0.361-0.913,1.236v2.995h-0.798V41.908z M38.333,39.075h1.597
	c0.666,0,1.084,0.181,1.436,0.514c0.333,0.323,0.523,0.789,0.523,1.369c0,1.293-0.751,1.978-2.158,1.978H39.17v2.776h-0.837V39.075z
	 M39.17,42.25h0.456c1.017,0,1.388-0.475,1.388-1.217c0-0.913-0.514-1.274-1.369-1.274H39.17V42.25z M44.111,40.796
	c1.283,0,1.949,0.97,1.949,2.491s-0.666,2.491-1.949,2.491c-1.284,0-1.949-0.97-1.949-2.491S42.827,40.796,44.111,40.796z
	 M44.111,45.131c0.76,0,1.112-0.627,1.112-1.844s-0.352-1.844-1.112-1.844c-0.761,0-1.112,0.627-1.112,1.844
	S43.35,45.131,44.111,45.131z M48.689,40.796c1.284,0,1.949,0.97,1.949,2.491s-0.665,2.491-1.949,2.491
	c-1.283,0-1.949-0.97-1.949-2.491S47.406,40.796,48.689,40.796z M48.689,45.131c0.761,0,1.112-0.627,1.112-1.844
	s-0.352-1.844-1.112-1.844c-0.76,0-1.112,0.627-1.112,1.844S47.929,45.131,48.689,45.131z M51.633,38.581h0.799v7.13h-0.799V38.581z
	"/>
<text transform="matrix(1 0 0 1 18.459 57.2153)"><tspan x="0" y="0" font-family="'FrutigerLTStd-Cn'" font-size="9.5">Swirl </tspan><tspan x="20.035" y="0" font-family="'FrutigerLTStd-Cn'" font-size="9.5">P</tspan><tspan x="24.262" y="0" font-family="'FrutigerLTStd-Cn'" font-size="9.5">ool</tspan></text>
<text transform="matrix(1 0 0 1 158.689 22.7114)" font-family="'FrutigerLTStd-BoldCn'" font-size="9.5">Lane Swim</text>
<text transform="matrix(1 0 0 1 160.1611 34.2158)" font-family="'FrutigerLTStd-BoldCn'" font-size="9.5">6:30-8 am</text>
<path d="M163.553,44.988c1.683-1.93,2.52-3.251,2.52-4.135c0-0.599-0.323-1.112-0.979-1.112c-0.38,0-0.894,0.209-1.273,0.514
	l-0.105-0.837c0.571-0.275,1.15-0.399,1.559-0.399c1.027,0,1.673,0.76,1.673,1.673c0,1.16-1.036,2.871-2.472,4.307h2.566v0.722
	h-3.489V44.988z M168.379,44.75c0.285,0.171,0.77,0.352,1.15,0.352c0.846,0,1.378-0.637,1.378-1.502
	c0-0.903-0.513-1.397-1.407-1.397c-0.333,0-0.637,0.076-1.093,0.219v-3.337h3.051v0.685h-2.253v1.854
	c0.209-0.066,0.504-0.104,0.751-0.104c0.979,0,1.825,0.666,1.825,1.978c0,1.378-0.722,2.291-2.139,2.291
	c-0.428,0-0.913-0.095-1.303-0.266L168.379,44.75z M172.901,41.918c0-0.352-0.028-0.704-0.038-1.046h0.77l0.029,0.723h0.019
	c0.256-0.552,0.666-0.789,1.198-0.789c0.513,0,0.894,0.266,1.141,0.76c0.257-0.475,0.627-0.76,1.179-0.76
	c0.836,0,1.407,0.485,1.407,1.549v3.365h-0.799v-3.327c0-0.618-0.266-0.903-0.741-0.903c-0.589,0-0.913,0.361-0.913,1.235v2.995
	h-0.799v-3.327c0-0.618-0.266-0.903-0.741-0.903c-0.589,0-0.913,0.361-0.913,1.235v2.995h-0.799V41.918z M182.192,39.085h1.597
	c0.666,0,1.084,0.181,1.436,0.513c0.333,0.323,0.523,0.789,0.523,1.369c0,1.292-0.751,1.977-2.158,1.977h-0.561v2.776h-0.836V39.085
	z M183.029,42.26h0.456c1.017,0,1.388-0.475,1.388-1.217c0-0.912-0.514-1.273-1.369-1.273h-0.475V42.26z M187.969,40.806
	c1.283,0,1.949,0.97,1.949,2.491s-0.666,2.49-1.949,2.49s-1.949-0.969-1.949-2.49S186.686,40.806,187.969,40.806z M187.969,45.141
	c0.76,0,1.112-0.627,1.112-1.844s-0.352-1.844-1.112-1.844c-0.761,0-1.112,0.627-1.112,1.844S187.208,45.141,187.969,45.141z
	 M192.548,40.806c1.283,0,1.949,0.97,1.949,2.491s-0.666,2.49-1.949,2.49c-1.284,0-1.949-0.969-1.949-2.49
	S191.265,40.806,192.548,40.806z M192.548,45.141c0.76,0,1.112-0.627,1.112-1.844s-0.352-1.844-1.112-1.844
	c-0.761,0-1.112,0.627-1.112,1.844S191.788,45.141,192.548,45.141z M195.492,38.591h0.798v7.129h-0.798V38.591z"/>
<text transform="matrix(1 0 0 1 162.3179 57.2246)"><tspan x="0" y="0" font-family="'FrutigerLTStd-Cn'" font-size="9.5">Swirl </tspan><tspan x="20.035" y="0" font-family="'FrutigerLTStd-Cn'" font-size="9.5">P</tspan><tspan x="24.262" y="0" font-family="'FrutigerLTStd-Cn'" font-size="9.5">ool</tspan></text>
<text transform="matrix(1 0 0 1 302.5474 22.7207)" font-family="'FrutigerLTStd-BoldCn'" font-size="9.5">Lane Swim</text>
<text transform="matrix(1 0 0 1 304.02 34.2251)" font-family="'FrutigerLTStd-BoldCn'" font-size="9.5">6:30-8 am</text>
<path d="M307.421,44.998c1.683-1.93,2.519-3.251,2.519-4.135c0-0.599-0.323-1.112-0.979-1.112c-0.38,0-0.893,0.209-1.273,0.513
	l-0.104-0.836c0.57-0.276,1.15-0.399,1.559-0.399c1.027,0,1.674,0.761,1.674,1.673c0,1.16-1.036,2.871-2.472,4.306h2.566v0.723
	h-3.488V44.998z M312.248,44.76c0.285,0.171,0.77,0.352,1.149,0.352c0.847,0,1.379-0.637,1.379-1.502
	c0-0.903-0.514-1.397-1.407-1.397c-0.333,0-0.637,0.076-1.093,0.219v-3.336h3.051v0.684h-2.253v1.854
	c0.21-0.067,0.504-0.104,0.751-0.104c0.979,0,1.825,0.665,1.825,1.977c0,1.378-0.722,2.291-2.139,2.291
	c-0.428,0-0.912-0.095-1.302-0.266L312.248,44.76z M316.769,41.927c0-0.352-0.028-0.704-0.038-1.045h0.771l0.028,0.722h0.019
	c0.257-0.551,0.666-0.789,1.198-0.789c0.513,0,0.894,0.266,1.141,0.761c0.257-0.476,0.627-0.761,1.179-0.761
	c0.837,0,1.407,0.485,1.407,1.55v3.365h-0.799v-3.328c0-0.618-0.267-0.903-0.741-0.903c-0.59,0-0.913,0.361-0.913,1.236v2.995
	h-0.799v-3.328c0-0.618-0.266-0.903-0.741-0.903c-0.589,0-0.912,0.361-0.912,1.236v2.995h-0.799V41.927z M326.06,39.095h1.598
	c0.665,0,1.083,0.18,1.435,0.513c0.333,0.323,0.523,0.789,0.523,1.369c0,1.293-0.751,1.978-2.158,1.978h-0.561v2.776h-0.837V39.095z
	 M326.897,42.27h0.456c1.018,0,1.388-0.476,1.388-1.217c0-0.913-0.513-1.274-1.369-1.274h-0.475V42.27z M331.837,40.815
	c1.283,0,1.948,0.97,1.948,2.491s-0.665,2.491-1.948,2.491s-1.949-0.97-1.949-2.491S330.554,40.815,331.837,40.815z M331.837,45.15
	c0.761,0,1.112-0.627,1.112-1.844s-0.352-1.844-1.112-1.844s-1.112,0.627-1.112,1.844S331.077,45.15,331.837,45.15z M336.417,40.815
	c1.283,0,1.948,0.97,1.948,2.491s-0.665,2.491-1.948,2.491c-1.284,0-1.949-0.97-1.949-2.491S335.132,40.815,336.417,40.815z
	 M336.417,45.15c0.76,0,1.112-0.627,1.112-1.844s-0.353-1.844-1.112-1.844c-0.761,0-1.112,0.627-1.112,1.844
	S335.656,45.15,336.417,45.15z M339.36,38.6h0.799v7.13h-0.799V38.6z"/>
<text transform="matrix(1 0 0 1 306.186 57.2344)"><tspan x="0" y="0" font-family="'FrutigerLTStd-Cn'" font-size="9.5">Swirl </tspan><tspan x="20.035" y="0" font-family="'FrutigerLTStd-Cn'" font-size="9.5">P</tspan><tspan x="24.263" y="0" font-family="'FrutigerLTStd-Cn'" font-size="9.5">ool</tspan></text>
<text transform="matrix(1 0 0 1 14.8491 71.4272)" font-family="'FrutigerLTStd-BoldCn'" font-size="9.5">Lane Swim</text>
<text transform="matrix(1 0 0 1 8.8359 82.9316)" font-family="'FrutigerLTStd-BoldCn'" font-size="9.5">8:30 am-1 pm</text>
<path d="M17.604,93.467c0.285,0.171,0.77,0.352,1.15,0.352c0.846,0,1.378-0.637,1.378-1.502c0-0.903-0.513-1.397-1.407-1.397
	c-0.333,0-0.637,0.076-1.093,0.219v-3.337h3.051v0.685h-2.253v1.854c0.209-0.066,0.504-0.104,0.751-0.104
	c0.979,0,1.825,0.666,1.825,1.978c0,1.378-0.723,2.291-2.139,2.291c-0.428,0-0.913-0.095-1.303-0.266L17.604,93.467z M23.828,87.734
	c1.245,0,1.93,1.169,1.93,3.384s-0.685,3.384-1.93,3.384s-1.93-1.169-1.93-3.384S22.583,87.734,23.828,87.734z M23.828,93.818
	c0.761,0,1.093-0.836,1.093-2.7s-0.333-2.7-1.093-2.7c-0.76,0-1.093,0.836-1.093,2.7S23.068,93.818,23.828,93.818z M26.687,90.634
	c0-0.352-0.028-0.704-0.038-1.046h0.77l0.028,0.723h0.019c0.257-0.551,0.666-0.789,1.198-0.789c0.514,0,0.894,0.266,1.141,0.761
	c0.256-0.476,0.627-0.761,1.179-0.761c0.836,0,1.407,0.485,1.407,1.55v3.365h-0.798v-3.327c0-0.618-0.266-0.903-0.742-0.903
	c-0.589,0-0.913,0.361-0.913,1.236v2.995h-0.798v-3.327c0-0.618-0.266-0.903-0.742-0.903c-0.589,0-0.913,0.361-0.913,1.236v2.995
	h-0.798V90.634z M35.978,87.801h1.597c0.666,0,1.083,0.181,1.436,0.514c0.333,0.323,0.523,0.789,0.523,1.369
	c0,1.293-0.751,1.978-2.158,1.978h-0.561v2.776h-0.836V87.801z M36.814,90.976h0.457c1.017,0,1.388-0.475,1.388-1.217
	c0-0.913-0.513-1.274-1.369-1.274h-0.476V90.976z M41.755,89.521c1.283,0,1.949,0.97,1.949,2.491s-0.666,2.491-1.949,2.491
	c-1.284,0-1.949-0.97-1.949-2.491S40.471,89.521,41.755,89.521z M41.755,93.856c0.76,0,1.112-0.627,1.112-1.844
	s-0.352-1.844-1.112-1.844c-0.761,0-1.112,0.627-1.112,1.844S40.994,93.856,41.755,93.856z M46.333,89.521
	c1.284,0,1.949,0.97,1.949,2.491s-0.665,2.491-1.949,2.491c-1.283,0-1.949-0.97-1.949-2.491S45.05,89.521,46.333,89.521z
	 M46.333,93.856c0.761,0,1.112-0.627,1.112-1.844s-0.352-1.844-1.112-1.844c-0.76,0-1.112,0.627-1.112,1.844
	S45.573,93.856,46.333,93.856z M49.277,87.307h0.799v7.13h-0.799V87.307z M50.73,91.442h4.753v0.646H50.73V91.442z"/>
<text transform="matrix(1 0 0 1 21.9839 105.9409)" font-family="'FrutigerLTStd-Cn'" font-size="9.5">Shallow</text>
<text transform="matrix(1 0 0 1 86.7739 77.1938)" font-family="'FrutigerLTStd-BoldCn'" font-size="9.5">Lane Swim</text>
<text transform="matrix(1 0 0 1 80.7603 88.6982)" font-family="'FrutigerLTStd-BoldCn'" font-size="9.5">8:30 am-1 pm</text>
<path d="M89.358,99.233c0.285,0.171,0.77,0.352,1.15,0.352c0.846,0,1.378-0.637,1.378-1.502c0-0.903-0.513-1.397-1.407-1.397
	c-0.333,0-0.637,0.076-1.093,0.219v-3.337h3.051v0.685h-2.253v1.854c0.209-0.066,0.504-0.104,0.751-0.104
	c0.979,0,1.825,0.666,1.825,1.978c0,1.378-0.722,2.291-2.139,2.291c-0.428,0-0.913-0.095-1.302-0.267L89.358,99.233z M95.582,93.501
	c1.246,0,1.93,1.169,1.93,3.384s-0.684,3.384-1.93,3.384c-1.245,0-1.93-1.169-1.93-3.384S94.336,93.501,95.582,93.501z
	 M95.582,99.585c0.761,0,1.093-0.836,1.093-2.7s-0.333-2.7-1.093-2.7c-0.76,0-1.093,0.836-1.093,2.7S94.821,99.585,95.582,99.585z
	 M98.44,96.4c0-0.352-0.028-0.704-0.038-1.046h0.77l0.029,0.723h0.019c0.256-0.551,0.665-0.789,1.198-0.789
	c0.513,0,0.894,0.266,1.141,0.761c0.257-0.476,0.627-0.761,1.179-0.761c0.836,0,1.407,0.485,1.407,1.549v3.365h-0.798v-3.327
	c0-0.618-0.266-0.903-0.742-0.903c-0.589,0-0.913,0.361-0.913,1.236v2.994h-0.798v-3.327c0-0.618-0.266-0.903-0.741-0.903
	c-0.59,0-0.913,0.361-0.913,1.236v2.994H98.44V96.4z M107.731,93.567h0.837v5.913h2.177v0.722h-3.014V93.567z M111.636,95.688
	c0.399-0.257,0.894-0.399,1.369-0.399c0.713,0,1.141,0.304,1.293,0.456c0.209,0.209,0.418,0.504,0.418,1.188v2.529
	c0,0.285,0.019,0.57,0.038,0.741h-0.723l-0.047-0.656h-0.019c-0.219,0.371-0.618,0.723-1.359,0.723
	c-0.799,0-1.397-0.466-1.397-1.397c0-0.941,0.618-1.635,2.281-1.635h0.466v-0.219c0-0.361-0.028-0.57-0.181-0.779
	c-0.162-0.219-0.475-0.304-0.808-0.304c-0.494,0-0.969,0.2-1.245,0.504L111.636,95.688z M113.955,97.826
	c-0.143-0.019-0.342-0.019-0.561-0.019c-0.941,0-1.388,0.447-1.388,1.008c0,0.513,0.266,0.846,0.817,0.846
	c0.694,0,1.131-0.561,1.131-1.227V97.826z M115.844,96.4c0-0.352-0.029-0.704-0.038-1.046h0.77l0.028,0.723h0.019
	c0.257-0.551,0.666-0.789,1.226-0.789c0.846,0,1.417,0.485,1.417,1.549v3.365h-0.798v-3.127c0-0.77-0.285-1.103-0.798-1.103
	c-0.627,0-1.027,0.437-1.027,1.312v2.918h-0.798V96.4z M121.022,98.017c0,1.122,0.437,1.645,1.321,1.645
	c0.399,0,0.836-0.2,1.112-0.399l0.038,0.723c-0.38,0.181-0.875,0.285-1.359,0.285c-1.284,0-1.949-0.97-1.949-2.491
	s0.666-2.491,1.873-2.491c1.093,0,1.702,0.875,1.702,2.301v0.428H121.022z M122.961,97.408c0-1.008-0.313-1.512-0.951-1.512
	c-0.513,0-0.969,0.38-0.988,1.512H122.961z M124.432,99.262c0.361,0.219,0.742,0.361,1.141,0.361c0.608,0,0.922-0.314,0.922-0.685
	c0-0.333-0.171-0.561-0.618-0.761l-0.533-0.237c-0.694-0.314-0.95-0.627-0.95-1.246c0-0.798,0.618-1.407,1.559-1.407
	c0.399,0,0.751,0.066,1.027,0.171l-0.038,0.685c-0.247-0.114-0.589-0.209-0.951-0.209c-0.522,0-0.798,0.285-0.798,0.666
	c0,0.39,0.285,0.608,0.817,0.817l0.285,0.114c0.589,0.237,0.96,0.637,0.96,1.236c0,0.836-0.447,1.502-1.559,1.502
	c-0.504,0-0.96-0.104-1.312-0.285L124.432,99.262z"/>
<text transform="matrix(1 0 0 1 158.6982 71.4561)" font-family="'FrutigerLTStd-BoldCn'" font-size="9.5">Lane Swim</text>
<text transform="matrix(1 0 0 1 152.6846 82.9604)" font-family="'FrutigerLTStd-BoldCn'" font-size="9.5">8:30 am-1 pm</text>
<path d="M161.454,93.495c0.285,0.171,0.77,0.352,1.15,0.352c0.846,0,1.378-0.637,1.378-1.502c0-0.903-0.514-1.397-1.407-1.397
	c-0.333,0-0.637,0.076-1.093,0.219V87.83h3.052v0.684h-2.253v1.854c0.209-0.066,0.504-0.104,0.751-0.104
	c0.979,0,1.825,0.666,1.825,1.977c0,1.378-0.723,2.291-2.139,2.291c-0.428,0-0.913-0.095-1.302-0.266L161.454,93.495z
	 M167.677,87.763c1.245,0,1.93,1.169,1.93,3.384c0,2.215-0.685,3.384-1.93,3.384c-1.246,0-1.93-1.169-1.93-3.384
	C165.748,88.932,166.432,87.763,167.677,87.763z M167.677,93.847c0.76,0,1.093-0.836,1.093-2.7c0-1.863-0.333-2.7-1.093-2.7
	c-0.761,0-1.093,0.837-1.093,2.7C166.584,93.01,166.917,93.847,167.677,93.847z M170.536,90.662c0-0.352-0.029-0.703-0.038-1.045
	h0.77l0.028,0.722h0.019c0.257-0.551,0.666-0.789,1.198-0.789c0.514,0,0.894,0.266,1.141,0.76c0.257-0.475,0.627-0.76,1.179-0.76
	c0.836,0,1.407,0.485,1.407,1.549v3.365h-0.798v-3.327c0-0.618-0.267-0.903-0.742-0.903c-0.589,0-0.913,0.361-0.913,1.236v2.995
	h-0.798v-3.327c0-0.618-0.266-0.903-0.742-0.903c-0.589,0-0.913,0.361-0.913,1.236v2.995h-0.798V90.662z M179.827,87.83h1.597
	c0.666,0,1.083,0.181,1.436,0.513c0.333,0.323,0.522,0.789,0.522,1.369c0,1.292-0.751,1.977-2.158,1.977h-0.561v2.776h-0.836V87.83z
	 M180.663,91.004h0.457c1.017,0,1.388-0.475,1.388-1.217c0-0.913-0.513-1.274-1.369-1.274h-0.476V91.004z M185.604,89.55
	c1.284,0,1.949,0.969,1.949,2.49s-0.665,2.491-1.949,2.491c-1.283,0-1.949-0.97-1.949-2.491S184.32,89.55,185.604,89.55z
	 M185.604,93.885c0.761,0,1.112-0.627,1.112-1.844s-0.352-1.844-1.112-1.844c-0.76,0-1.112,0.627-1.112,1.844
	S184.843,93.885,185.604,93.885z M190.183,89.55c1.283,0,1.949,0.969,1.949,2.49s-0.666,2.491-1.949,2.491s-1.949-0.97-1.949-2.491
	S188.899,89.55,190.183,89.55z M190.183,93.885c0.761,0,1.112-0.627,1.112-1.844s-0.352-1.844-1.112-1.844
	c-0.76,0-1.112,0.627-1.112,1.844S189.422,93.885,190.183,93.885z M193.126,87.335h0.798v7.13h-0.798V87.335z M194.58,91.47h4.753
	v0.646h-4.753V91.47z"/>
<text transform="matrix(1 0 0 1 165.8325 105.9692)" font-family="'FrutigerLTStd-Cn'" font-size="9.5">Shallow</text>
<text transform="matrix(1 0 0 1 230.6226 77.2222)" font-family="'FrutigerLTStd-BoldCn'" font-size="9.5">Lane Swim</text>
<text transform="matrix(1 0 0 1 224.6094 88.7266)" font-family="'FrutigerLTStd-BoldCn'" font-size="9.5">8:30 am-1 pm</text>
<path d="M233.207,99.262c0.285,0.171,0.77,0.352,1.15,0.352c0.846,0,1.378-0.637,1.378-1.502c0-0.903-0.514-1.397-1.407-1.397
	c-0.333,0-0.637,0.076-1.093,0.219v-3.337h3.051v0.685h-2.253v1.854c0.209-0.067,0.504-0.105,0.751-0.105
	c0.979,0,1.825,0.666,1.825,1.978c0,1.378-0.723,2.291-2.139,2.291c-0.428,0-0.912-0.095-1.302-0.266L233.207,99.262z
	 M239.431,93.529c1.245,0,1.93,1.169,1.93,3.384s-0.685,3.384-1.93,3.384s-1.93-1.169-1.93-3.384S238.186,93.529,239.431,93.529z
	 M239.431,99.613c0.76,0,1.093-0.836,1.093-2.7s-0.333-2.7-1.093-2.7s-1.093,0.836-1.093,2.7S238.67,99.613,239.431,99.613z
	 M242.289,96.429c0-0.352-0.029-0.703-0.038-1.045h0.77l0.028,0.722h0.019c0.257-0.551,0.666-0.789,1.198-0.789
	c0.514,0,0.894,0.267,1.141,0.761c0.256-0.476,0.627-0.761,1.179-0.761c0.836,0,1.407,0.485,1.407,1.55v3.365h-0.798v-3.327
	c0-0.618-0.266-0.903-0.742-0.903c-0.589,0-0.913,0.361-0.913,1.236v2.995h-0.798v-3.327c0-0.618-0.266-0.903-0.742-0.903
	c-0.589,0-0.913,0.361-0.913,1.236v2.995h-0.798V96.429z M251.58,93.596h0.836v5.913h2.177v0.723h-3.013V93.596z M255.485,95.716
	c0.399-0.257,0.894-0.399,1.369-0.399c0.713,0,1.141,0.304,1.292,0.457c0.21,0.209,0.419,0.504,0.419,1.188v2.529
	c0,0.285,0.019,0.57,0.038,0.742h-0.723l-0.048-0.656h-0.019c-0.219,0.371-0.618,0.723-1.359,0.723
	c-0.799,0-1.397-0.466-1.397-1.397c0-0.941,0.618-1.635,2.281-1.635h0.466v-0.218c0-0.361-0.028-0.57-0.181-0.78
	c-0.161-0.219-0.476-0.304-0.808-0.304c-0.495,0-0.97,0.2-1.246,0.504L255.485,95.716z M257.804,97.854
	c-0.143-0.019-0.342-0.019-0.561-0.019c-0.941,0-1.389,0.447-1.389,1.007c0,0.514,0.267,0.846,0.818,0.846
	c0.693,0,1.131-0.561,1.131-1.227V97.854z M259.693,96.429c0-0.352-0.028-0.703-0.038-1.045h0.771l0.028,0.722h0.019
	c0.257-0.551,0.666-0.789,1.227-0.789c0.846,0,1.416,0.485,1.416,1.55v3.365h-0.798v-3.128c0-0.77-0.285-1.103-0.799-1.103
	c-0.627,0-1.026,0.438-1.026,1.312v2.918h-0.799V96.429z M264.871,98.045c0,1.122,0.438,1.645,1.321,1.645
	c0.399,0,0.837-0.2,1.112-0.399l0.038,0.723c-0.38,0.181-0.874,0.285-1.359,0.285c-1.283,0-1.948-0.97-1.948-2.491
	s0.665-2.491,1.872-2.491c1.094,0,1.702,0.875,1.702,2.301v0.428H264.871z M266.81,97.437c0-1.008-0.313-1.512-0.95-1.512
	c-0.514,0-0.97,0.38-0.989,1.512H266.81z M268.281,99.29c0.361,0.219,0.741,0.361,1.141,0.361c0.608,0,0.922-0.313,0.922-0.685
	c0-0.333-0.171-0.561-0.617-0.76l-0.532-0.238c-0.694-0.313-0.951-0.627-0.951-1.245c0-0.799,0.618-1.407,1.56-1.407
	c0.398,0,0.751,0.067,1.026,0.171l-0.038,0.684c-0.247-0.114-0.59-0.209-0.951-0.209c-0.522,0-0.798,0.285-0.798,0.666
	c0,0.39,0.285,0.608,0.817,0.817l0.285,0.114c0.59,0.238,0.96,0.637,0.96,1.236c0,0.836-0.446,1.502-1.559,1.502
	c-0.504,0-0.96-0.104-1.312-0.285L268.281,99.29z"/>
<text transform="matrix(1 0 0 1 302.5474 71.4844)" font-family="'FrutigerLTStd-BoldCn'" font-size="9.5">Lane Swim</text>
<text transform="matrix(1 0 0 1 296.5337 82.9888)" font-family="'FrutigerLTStd-BoldCn'" font-size="9.5">8:30 am-1 pm</text>
<path d="M305.302,93.523c0.285,0.171,0.771,0.352,1.15,0.352c0.847,0,1.379-0.637,1.379-1.502c0-0.903-0.514-1.397-1.407-1.397
	c-0.333,0-0.637,0.076-1.093,0.219v-3.337h3.051v0.685h-2.253v1.854c0.209-0.066,0.504-0.104,0.751-0.104
	c0.979,0,1.825,0.666,1.825,1.978c0,1.378-0.722,2.291-2.139,2.291c-0.428,0-0.912-0.095-1.303-0.266L305.302,93.523z
	 M311.526,87.792c1.245,0,1.93,1.169,1.93,3.384s-0.685,3.384-1.93,3.384s-1.93-1.169-1.93-3.384S310.281,87.792,311.526,87.792z
	 M311.526,93.875c0.761,0,1.094-0.836,1.094-2.7s-0.333-2.7-1.094-2.7c-0.76,0-1.093,0.836-1.093,2.7S310.766,93.875,311.526,93.875
	z M314.384,90.691c0-0.352-0.028-0.704-0.038-1.046h0.771l0.028,0.723h0.019c0.257-0.551,0.666-0.789,1.198-0.789
	c0.514,0,0.894,0.266,1.141,0.76c0.257-0.475,0.628-0.76,1.179-0.76c0.837,0,1.407,0.485,1.407,1.549v3.365h-0.799v-3.327
	c0-0.618-0.266-0.903-0.741-0.903c-0.59,0-0.913,0.361-0.913,1.236v2.994h-0.798v-3.327c0-0.618-0.267-0.903-0.742-0.903
	c-0.589,0-0.912,0.361-0.912,1.236v2.994h-0.799V90.691z M323.675,87.858h1.598c0.665,0,1.084,0.181,1.436,0.513
	c0.332,0.323,0.522,0.789,0.522,1.369c0,1.293-0.751,1.977-2.158,1.977h-0.561v2.776h-0.837V87.858z M324.512,91.033h0.456
	c1.018,0,1.389-0.476,1.389-1.217c0-0.913-0.514-1.274-1.369-1.274h-0.476V91.033z M329.453,89.579c1.283,0,1.949,0.97,1.949,2.491
	s-0.666,2.491-1.949,2.491s-1.949-0.97-1.949-2.491S328.169,89.579,329.453,89.579z M329.453,93.914
	c0.761,0,1.112-0.627,1.112-1.844s-0.352-1.844-1.112-1.844s-1.112,0.627-1.112,1.844S328.692,93.914,329.453,93.914z
	 M334.032,89.579c1.283,0,1.948,0.97,1.948,2.491s-0.665,2.491-1.948,2.491s-1.949-0.97-1.949-2.491S332.749,89.579,334.032,89.579z
	 M334.032,93.914c0.761,0,1.112-0.627,1.112-1.844s-0.352-1.844-1.112-1.844s-1.112,0.627-1.112,1.844
	S333.271,93.914,334.032,93.914z M336.975,87.364h0.799v7.129h-0.799V87.364z M338.428,91.499h4.754v0.646h-4.754V91.499z"/>
<text transform="matrix(1 0 0 1 309.6821 105.998)" font-family="'FrutigerLTStd-Cn'" font-size="9.5">Shallow</text>
<text transform="matrix(1 0 0 1 84.1138 118.8135)" font-family="'FrutigerLTStd-BoldCn'" font-size="9.5">Public Swim</text>
<text transform="matrix(1 0 0 1 89.4717 130.3179)" font-family="'FrutigerLTStd-BoldCn'" font-size="9.5">10-11 am</text>
<path d="M91.638,141.09c1.683-1.93,2.519-3.251,2.519-4.135c0-0.599-0.323-1.112-0.979-1.112c-0.38,0-0.894,0.209-1.273,0.514
	l-0.105-0.837c0.571-0.275,1.15-0.399,1.559-0.399c1.027,0,1.673,0.76,1.673,1.673c0,1.16-1.036,2.871-2.472,4.306h2.567v0.723
	h-3.489V141.09z M96.464,140.853c0.286,0.171,0.77,0.352,1.15,0.352c0.846,0,1.378-0.637,1.378-1.502
	c0-0.903-0.513-1.397-1.407-1.397c-0.333,0-0.637,0.076-1.093,0.218v-3.336h3.051v0.685h-2.253v1.854
	c0.209-0.066,0.504-0.104,0.751-0.104c0.979,0,1.825,0.666,1.825,1.977c0,1.378-0.722,2.291-2.139,2.291
	c-0.428,0-0.913-0.095-1.302-0.266L96.464,140.853z M100.986,138.02c0-0.352-0.028-0.704-0.038-1.046h0.77l0.029,0.723h0.019
	c0.256-0.552,0.666-0.789,1.198-0.789c0.513,0,0.894,0.266,1.141,0.76c0.257-0.475,0.627-0.76,1.179-0.76
	c0.836,0,1.407,0.485,1.407,1.549v3.365h-0.799v-3.327c0-0.618-0.266-0.903-0.741-0.903c-0.589,0-0.913,0.361-0.913,1.236v2.995
	h-0.799v-3.327c0-0.618-0.266-0.903-0.741-0.903c-0.589,0-0.913,0.361-0.913,1.236v2.995h-0.799V138.02z M110.277,135.187h1.597
	c0.666,0,1.084,0.181,1.436,0.513c0.333,0.323,0.523,0.789,0.523,1.369c0,1.292-0.751,1.977-2.158,1.977h-0.561v2.776h-0.836
	V135.187z M111.114,138.362h0.456c1.018,0,1.388-0.475,1.388-1.217c0-0.913-0.513-1.273-1.369-1.273h-0.475V138.362z
	 M116.054,136.908c1.283,0,1.949,0.969,1.949,2.491c0,1.521-0.666,2.49-1.949,2.49s-1.949-0.97-1.949-2.49
	C114.105,137.877,114.771,136.908,116.054,136.908z M116.054,141.242c0.76,0,1.112-0.627,1.112-1.844s-0.352-1.844-1.112-1.844
	c-0.761,0-1.112,0.627-1.112,1.844S115.293,141.242,116.054,141.242z M120.633,136.908c1.283,0,1.949,0.969,1.949,2.491
	c0,1.521-0.666,2.49-1.949,2.49c-1.284,0-1.949-0.97-1.949-2.49C118.685,137.877,119.35,136.908,120.633,136.908z M120.633,141.242
	c0.76,0,1.112-0.627,1.112-1.844s-0.352-1.844-1.112-1.844c-0.761,0-1.112,0.627-1.112,1.844S119.873,141.242,120.633,141.242z
	 M123.577,134.692h0.798v7.13h-0.798V134.692z"/>
<text transform="matrix(1 0 0 1 90.4028 153.3267)"><tspan x="0" y="0" font-family="'FrutigerLTStd-Cn'" font-size="9.5">Swirl </tspan><tspan x="20.035" y="0" font-family="'FrutigerLTStd-Cn'" font-size="9.5">P</tspan><tspan x="24.262" y="0" font-family="'FrutigerLTStd-Cn'" font-size="9.5">ool</tspan></text>
<path d="M88.665,158.196h0.836v2.88h0.019l2.196-2.88h0.998l-2.491,3.137l2.7,3.498H91.84l-2.32-3.213h-0.019v3.213h-0.836V158.196z
	 M94.451,157.987v0.951h-0.875v-0.951H94.451z M93.614,159.983h0.798v4.848h-0.798V159.983z M99.136,163.938
	c0,0.295,0.029,0.599,0.038,0.894h-0.77l-0.028-0.713h-0.019c-0.209,0.38-0.57,0.78-1.274,0.78c-0.998,0-1.673-0.818-1.673-2.491
	s0.675-2.491,1.673-2.491c0.551,0,0.913,0.219,1.236,0.732h0.019v-2.947h0.798V163.938z M97.272,160.563
	c-0.732,0-1.064,0.627-1.064,1.844s0.333,1.844,1.064,1.844s1.065-0.627,1.065-1.844S98.004,160.563,97.272,160.563z
	 M103.706,163.938c0,0.295,0.028,0.599,0.038,0.894h-0.77l-0.029-0.713h-0.019c-0.209,0.38-0.57,0.78-1.274,0.78
	c-0.998,0-1.673-0.818-1.673-2.491s0.675-2.491,1.673-2.491c0.552,0,0.913,0.219,1.236,0.732h0.019v-2.947h0.799V163.938z
	 M101.842,160.563c-0.732,0-1.065,0.627-1.065,1.844s0.333,1.844,1.065,1.844s1.064-0.627,1.064-1.844
	S102.574,160.563,101.842,160.563z M105.699,157.987v0.951h-0.875v-0.951H105.699z M104.862,159.983h0.798v4.848h-0.798V159.983z
	 M107.494,162.645c0,1.122,0.437,1.645,1.321,1.645c0.399,0,0.836-0.2,1.112-0.399l0.038,0.723c-0.38,0.181-0.875,0.285-1.359,0.285
	c-1.284,0-1.949-0.97-1.949-2.491s0.665-2.491,1.873-2.491c1.093,0,1.702,0.875,1.702,2.301v0.428H107.494z M109.433,162.037
	c0-1.008-0.313-1.512-0.95-1.512c-0.514,0-0.97,0.38-0.989,1.512H109.433z M113.545,158.196h1.597c0.666,0,1.084,0.181,1.436,0.514
	c0.333,0.323,0.523,0.789,0.523,1.369c0,1.293-0.751,1.978-2.158,1.978h-0.561v2.775h-0.836V158.196z M114.382,161.371h0.456
	c1.018,0,1.388-0.476,1.388-1.217c0-0.913-0.513-1.274-1.369-1.274h-0.475V161.371z M119.322,159.917
	c1.283,0,1.949,0.97,1.949,2.491s-0.666,2.491-1.949,2.491s-1.949-0.97-1.949-2.491S118.039,159.917,119.322,159.917z
	 M119.322,164.251c0.761,0,1.112-0.627,1.112-1.844s-0.352-1.844-1.112-1.844c-0.76,0-1.112,0.627-1.112,1.844
	S118.562,164.251,119.322,164.251z M123.901,159.917c1.283,0,1.949,0.97,1.949,2.491s-0.666,2.491-1.949,2.491
	c-1.284,0-1.949-0.97-1.949-2.491S122.618,159.917,123.901,159.917z M123.901,164.251c0.76,0,1.112-0.627,1.112-1.844
	s-0.352-1.844-1.112-1.844c-0.761,0-1.112,0.627-1.112,1.844S123.141,164.251,123.901,164.251z M126.845,157.702h0.798v7.129h-0.798
	V157.702z"/>
<text transform="matrix(1 0 0 1 227.9819 118.8325)" font-family="'FrutigerLTStd-BoldCn'" font-size="9.5">Public Swim</text>
<text transform="matrix(1 0 0 1 233.3398 130.3369)" font-family="'FrutigerLTStd-BoldCn'" font-size="9.5">10-11 am</text>
<path d="M235.497,141.109c1.683-1.93,2.519-3.251,2.519-4.135c0-0.599-0.323-1.112-0.979-1.112c-0.38,0-0.894,0.209-1.274,0.513
	l-0.104-0.836c0.57-0.275,1.15-0.399,1.559-0.399c1.026,0,1.673,0.76,1.673,1.673c0,1.16-1.036,2.871-2.472,4.306h2.567v0.723
	h-3.489V141.109z M240.323,140.872c0.285,0.171,0.77,0.352,1.15,0.352c0.846,0,1.378-0.637,1.378-1.502
	c0-0.903-0.513-1.397-1.407-1.397c-0.333,0-0.637,0.076-1.093,0.218v-3.336h3.052v0.685h-2.253v1.854
	c0.209-0.066,0.504-0.104,0.751-0.104c0.979,0,1.825,0.666,1.825,1.977c0,1.378-0.723,2.291-2.139,2.291
	c-0.428,0-0.913-0.095-1.302-0.266L240.323,140.872z M244.845,138.039c0-0.352-0.029-0.704-0.038-1.046h0.77l0.028,0.723h0.019
	c0.257-0.552,0.666-0.789,1.198-0.789c0.513,0,0.894,0.266,1.141,0.76c0.257-0.475,0.627-0.76,1.179-0.76
	c0.837,0,1.407,0.485,1.407,1.549v3.365h-0.799v-3.327c0-0.618-0.266-0.903-0.741-0.903c-0.589,0-0.913,0.361-0.913,1.236v2.995
	h-0.798v-3.327c0-0.618-0.267-0.903-0.742-0.903c-0.589,0-0.913,0.361-0.913,1.236v2.995h-0.798V138.039z M254.135,135.206h1.598
	c0.665,0,1.083,0.181,1.436,0.513c0.332,0.323,0.522,0.789,0.522,1.369c0,1.292-0.751,1.977-2.158,1.977h-0.561v2.776h-0.837
	V135.206z M254.972,138.381h0.456c1.018,0,1.388-0.475,1.388-1.217c0-0.913-0.513-1.273-1.368-1.273h-0.476V138.381z
	 M259.913,136.927c1.283,0,1.949,0.97,1.949,2.49c0,1.521-0.666,2.491-1.949,2.491s-1.948-0.969-1.948-2.491
	C257.964,137.896,258.629,136.927,259.913,136.927z M259.913,141.261c0.761,0,1.112-0.627,1.112-1.844s-0.352-1.844-1.112-1.844
	s-1.112,0.627-1.112,1.844S259.152,141.261,259.913,141.261z M264.492,136.927c1.283,0,1.948,0.97,1.948,2.49
	c0,1.521-0.665,2.491-1.948,2.491s-1.949-0.969-1.949-2.491C262.542,137.896,263.208,136.927,264.492,136.927z M264.492,141.261
	c0.761,0,1.112-0.627,1.112-1.844s-0.352-1.844-1.112-1.844s-1.112,0.627-1.112,1.844S263.731,141.261,264.492,141.261z
	 M267.435,134.711h0.799v7.13h-0.799V134.711z"/>
<text transform="matrix(1 0 0 1 234.2612 153.3457)"><tspan x="0" y="0" font-family="'FrutigerLTStd-Cn'" font-size="9.5">Swirl </tspan><tspan x="20.035" y="0" font-family="'FrutigerLTStd-Cn'" font-size="9.5">P</tspan><tspan x="24.263" y="0" font-family="'FrutigerLTStd-Cn'" font-size="9.5">ool</tspan></text>
<path d="M232.523,158.215h0.837v2.88h0.019l2.196-2.88h0.998l-2.491,3.137l2.7,3.498h-1.083l-2.32-3.213h-0.019v3.213h-0.837
	V158.215z M238.309,158.006v0.951h-0.875v-0.951H238.309z M237.473,160.002h0.798v4.848h-0.798V160.002z M242.994,163.957
	c0,0.295,0.029,0.599,0.038,0.894h-0.77l-0.028-0.713h-0.019c-0.209,0.38-0.57,0.78-1.274,0.78c-0.998,0-1.673-0.818-1.673-2.491
	c0-1.673,0.675-2.491,1.673-2.491c0.551,0,0.913,0.219,1.236,0.732h0.019v-2.947h0.798V163.957z M241.131,160.582
	c-0.732,0-1.065,0.627-1.065,1.844s0.333,1.844,1.065,1.844c0.732,0,1.064-0.627,1.064-1.844S241.863,160.582,241.131,160.582z
	 M247.564,163.957c0,0.295,0.028,0.599,0.038,0.894h-0.77l-0.029-0.713h-0.019c-0.209,0.38-0.57,0.78-1.273,0.78
	c-0.999,0-1.673-0.818-1.673-2.491c0-1.673,0.675-2.491,1.673-2.491c0.551,0,0.913,0.219,1.236,0.732h0.019v-2.947h0.799V163.957z
	 M245.701,160.582c-0.732,0-1.065,0.627-1.065,1.844s0.333,1.844,1.065,1.844s1.064-0.627,1.064-1.844
	S246.433,160.582,245.701,160.582z M249.557,158.006v0.951h-0.875v-0.951H249.557z M248.721,160.002h0.798v4.848h-0.798V160.002z
	 M251.353,162.664c0,1.122,0.437,1.645,1.321,1.645c0.399,0,0.836-0.2,1.112-0.399l0.038,0.723c-0.38,0.181-0.874,0.285-1.359,0.285
	c-1.284,0-1.949-0.97-1.949-2.491s0.665-2.491,1.873-2.491c1.093,0,1.702,0.875,1.702,2.301v0.428H251.353z M253.292,162.056
	c0-1.008-0.313-1.512-0.95-1.512c-0.514,0-0.97,0.38-0.989,1.512H253.292z M257.404,158.215H259c0.666,0,1.084,0.181,1.436,0.514
	c0.333,0.323,0.523,0.789,0.523,1.369c0,1.293-0.751,1.978-2.158,1.978h-0.561v2.775h-0.837V158.215z M258.241,161.39h0.456
	c1.017,0,1.388-0.476,1.388-1.217c0-0.913-0.514-1.274-1.369-1.274h-0.475V161.39z M263.181,159.936c1.283,0,1.948,0.97,1.948,2.491
	s-0.665,2.491-1.948,2.491c-1.284,0-1.949-0.97-1.949-2.491S261.897,159.936,263.181,159.936z M263.181,164.271
	c0.76,0,1.112-0.627,1.112-1.844s-0.353-1.844-1.112-1.844c-0.761,0-1.112,0.627-1.112,1.844S262.42,164.271,263.181,164.271z
	 M267.759,159.936c1.284,0,1.949,0.97,1.949,2.491s-0.665,2.491-1.949,2.491c-1.283,0-1.948-0.97-1.948-2.491
	S266.476,159.936,267.759,159.936z M267.759,164.271c0.761,0,1.112-0.627,1.112-1.844s-0.352-1.844-1.112-1.844
	c-0.76,0-1.111,0.627-1.111,1.844S267,164.271,267.759,164.271z M270.704,157.721h0.799v7.129h-0.799V157.721z"/>
<text transform="matrix(1 0 0 1 364.5913 124.5986)"><tspan x="0" y="0" font-family="'FrutigerLTStd-BoldCn'" font-size="9.5">P</tspan><tspan x="4.931" y="0" font-family="'FrutigerLTStd-BoldCn'" font-size="9.5">r</tspan><tspan x="8.188" y="0" font-family="'FrutigerLTStd-BoldCn'" font-size="9.5">eschool Swim</tspan></text>
<text transform="matrix(1 0 0 1 377.189 136.1035)" font-family="'FrutigerLTStd-BoldCn'" font-size="9.5">10-11 am</text>
<path d="M376.98,146.876c1.683-1.93,2.52-3.251,2.52-4.135c0-0.599-0.323-1.112-0.979-1.112c-0.38,0-0.894,0.209-1.274,0.513
	l-0.104-0.836c0.571-0.276,1.15-0.399,1.56-0.399c1.026,0,1.673,0.761,1.673,1.673c0,1.16-1.036,2.871-2.472,4.306h2.566v0.723
	h-3.488V146.876z M381.806,146.638c0.285,0.171,0.77,0.352,1.15,0.352c0.846,0,1.378-0.637,1.378-1.502
	c0-0.903-0.513-1.397-1.406-1.397c-0.333,0-0.638,0.076-1.094,0.219v-3.336h3.052v0.684h-2.253v1.854
	c0.209-0.066,0.504-0.104,0.751-0.104c0.979,0,1.825,0.665,1.825,1.977c0,1.378-0.723,2.291-2.139,2.291
	c-0.428,0-0.913-0.095-1.303-0.266L381.806,146.638z M386.328,143.805c0-0.352-0.028-0.703-0.038-1.045h0.771l0.028,0.722h0.02
	c0.256-0.551,0.665-0.789,1.197-0.789c0.514,0,0.894,0.266,1.141,0.76c0.257-0.475,0.628-0.76,1.179-0.76
	c0.837,0,1.407,0.484,1.407,1.549v3.365h-0.799v-3.327c0-0.618-0.266-0.903-0.741-0.903c-0.59,0-0.912,0.361-0.912,1.236v2.995
	h-0.799v-3.327c0-0.618-0.267-0.903-0.741-0.903c-0.59,0-0.913,0.361-0.913,1.236v2.995h-0.799V143.805z M395.619,140.973h1.598
	c0.665,0,1.084,0.181,1.436,0.513c0.332,0.323,0.522,0.789,0.522,1.369c0,1.293-0.751,1.978-2.158,1.978h-0.561v2.776h-0.837
	V140.973z M396.456,144.147h0.456c1.018,0,1.389-0.475,1.389-1.217c0-0.913-0.514-1.274-1.369-1.274h-0.476V144.147z
	 M401.396,142.693c1.283,0,1.949,0.969,1.949,2.49s-0.666,2.491-1.949,2.491s-1.948-0.97-1.948-2.491
	S400.113,142.693,401.396,142.693z M401.396,147.028c0.761,0,1.112-0.627,1.112-1.844s-0.352-1.844-1.112-1.844
	s-1.112,0.627-1.112,1.844S400.635,147.028,401.396,147.028z M405.975,142.693c1.283,0,1.949,0.969,1.949,2.49
	s-0.666,2.491-1.949,2.491s-1.948-0.97-1.948-2.491S404.692,142.693,405.975,142.693z M405.975,147.028
	c0.761,0,1.112-0.627,1.112-1.844s-0.352-1.844-1.112-1.844s-1.112,0.627-1.112,1.844S405.214,147.028,405.975,147.028z
	 M408.919,140.478h0.798v7.13h-0.798V140.478z M414.136,141.229l0.229,0.685l-1.217,0.276l0.817,0.941l-0.589,0.418l-0.628-1.065
	l-0.646,1.065l-0.58-0.418l0.827-0.941l-1.217-0.276l0.219-0.685l1.141,0.495l-0.104-1.246h0.723l-0.124,1.236L414.136,141.229z"/>
<path d="M376.381,152.477h0.837v2.88h0.019l2.196-2.88h0.998l-2.49,3.137l2.699,3.498h-1.083l-2.32-3.213h-0.019v3.213h-0.837
	V152.477z M382.167,152.268v0.951h-0.874v-0.951H382.167z M381.332,154.264h0.798v4.848h-0.798V154.264z M386.853,158.219
	c0,0.295,0.028,0.599,0.038,0.894h-0.771l-0.028-0.713h-0.019c-0.21,0.38-0.57,0.779-1.274,0.779c-0.998,0-1.673-0.817-1.673-2.49
	c0-1.673,0.675-2.491,1.673-2.491c0.552,0,0.913,0.218,1.236,0.732h0.019v-2.947h0.799V158.219z M384.99,154.844
	c-0.732,0-1.064,0.628-1.064,1.845s0.332,1.844,1.064,1.844c0.731,0,1.064-0.627,1.064-1.844S385.721,154.844,384.99,154.844z
	 M391.422,158.219c0,0.295,0.028,0.599,0.038,0.894h-0.77l-0.029-0.713h-0.019c-0.209,0.38-0.57,0.779-1.274,0.779
	c-0.998,0-1.673-0.817-1.673-2.49c0-1.673,0.675-2.491,1.673-2.491c0.552,0,0.913,0.218,1.236,0.732h0.019v-2.947h0.799V158.219z
	 M389.559,154.844c-0.731,0-1.064,0.628-1.064,1.845s0.333,1.844,1.064,1.844c0.732,0,1.064-0.627,1.064-1.844
	S390.292,154.844,389.559,154.844z M393.416,152.268v0.951h-0.874v-0.951H393.416z M392.58,154.264h0.798v4.848h-0.798V154.264z
	 M395.211,156.926c0,1.122,0.437,1.645,1.321,1.645c0.398,0,0.836-0.2,1.112-0.399l0.038,0.722
	c-0.381,0.181-0.875,0.285-1.359,0.285c-1.284,0-1.949-0.97-1.949-2.49c0-1.521,0.665-2.491,1.873-2.491
	c1.093,0,1.701,0.875,1.701,2.3v0.428H395.211z M397.15,156.317c0-1.008-0.313-1.511-0.95-1.511c-0.514,0-0.97,0.38-0.988,1.511
	H397.15z M401.262,152.477h1.597c0.666,0,1.084,0.181,1.436,0.513c0.333,0.323,0.523,0.789,0.523,1.369
	c0,1.292-0.751,1.977-2.158,1.977h-0.561v2.776h-0.837V152.477z M402.099,155.652h0.456c1.018,0,1.388-0.475,1.388-1.217
	c0-0.913-0.514-1.273-1.369-1.273h-0.475V155.652z M407.04,154.198c1.283,0,1.948,0.969,1.948,2.491c0,1.521-0.665,2.49-1.948,2.49
	s-1.949-0.97-1.949-2.49C405.09,155.167,405.756,154.198,407.04,154.198z M407.04,158.532c0.761,0,1.112-0.627,1.112-1.844
	s-0.352-1.845-1.112-1.845s-1.112,0.628-1.112,1.845S406.279,158.532,407.04,158.532z M411.619,154.198
	c1.283,0,1.948,0.969,1.948,2.491c0,1.521-0.665,2.49-1.948,2.49c-1.284,0-1.949-0.97-1.949-2.49
	C409.669,155.167,410.334,154.198,411.619,154.198z M411.619,158.532c0.76,0,1.112-0.627,1.112-1.844s-0.353-1.845-1.112-1.845
	c-0.761,0-1.112,0.628-1.112,1.845S410.858,158.532,411.619,158.532z M414.562,151.982h0.799v7.13h-0.799V151.982z"/>
<text transform="matrix(1 0 0 1 436.5259 124.6084)"><tspan x="0" y="0" font-family="'FrutigerLTStd-BoldCn'" font-size="9.5">P</tspan><tspan x="4.931" y="0" font-family="'FrutigerLTStd-BoldCn'" font-size="9.5">r</tspan><tspan x="8.188" y="0" font-family="'FrutigerLTStd-BoldCn'" font-size="9.5">eschool Swim</tspan></text>
<text transform="matrix(1 0 0 1 449.1226 136.1128)" font-family="'FrutigerLTStd-BoldCn'" font-size="9.5">10-11 am</text>
<path d="M448.905,146.885c1.683-1.93,2.519-3.251,2.519-4.135c0-0.599-0.323-1.112-0.979-1.112c-0.381,0-0.894,0.209-1.274,0.514
	l-0.104-0.837c0.57-0.275,1.15-0.399,1.56-0.399c1.026,0,1.673,0.76,1.673,1.673c0,1.16-1.036,2.871-2.472,4.307h2.566v0.722h-3.488
	V146.885z M453.731,146.647c0.285,0.171,0.77,0.352,1.149,0.352c0.847,0,1.379-0.637,1.379-1.502c0-0.903-0.514-1.397-1.407-1.397
	c-0.332,0-0.637,0.076-1.093,0.219v-3.337h3.052v0.685h-2.253v1.854c0.209-0.066,0.503-0.104,0.75-0.104
	c0.979,0,1.826,0.666,1.826,1.978c0,1.378-0.723,2.291-2.14,2.291c-0.428,0-0.912-0.095-1.302-0.266L453.731,146.647z
	 M458.252,143.815c0-0.352-0.028-0.704-0.038-1.046h0.771l0.028,0.723h0.019c0.257-0.551,0.666-0.789,1.198-0.789
	c0.513,0,0.894,0.266,1.141,0.76c0.257-0.475,0.627-0.76,1.179-0.76c0.837,0,1.407,0.485,1.407,1.549v3.365h-0.799v-3.327
	c0-0.618-0.267-0.903-0.741-0.903c-0.59,0-0.913,0.361-0.913,1.236v2.994h-0.799v-3.327c0-0.618-0.266-0.903-0.741-0.903
	c-0.589,0-0.912,0.361-0.912,1.236v2.994h-0.799V143.815z M467.543,140.982h1.598c0.665,0,1.083,0.181,1.435,0.513
	c0.333,0.323,0.523,0.789,0.523,1.369c0,1.293-0.751,1.977-2.158,1.977h-0.561v2.776h-0.837V140.982z M468.38,144.157h0.456
	c1.018,0,1.388-0.476,1.388-1.217c0-0.913-0.513-1.274-1.368-1.274h-0.476V144.157z M473.321,142.703
	c1.283,0,1.948,0.97,1.948,2.491s-0.665,2.49-1.948,2.49s-1.949-0.969-1.949-2.49S472.038,142.703,473.321,142.703z
	 M473.321,147.038c0.761,0,1.112-0.627,1.112-1.844s-0.352-1.844-1.112-1.844s-1.112,0.627-1.112,1.844
	S472.56,147.038,473.321,147.038z M477.9,142.703c1.283,0,1.948,0.97,1.948,2.491s-0.665,2.49-1.948,2.49s-1.949-0.969-1.949-2.49
	S476.617,142.703,477.9,142.703z M477.9,147.038c0.76,0,1.112-0.627,1.112-1.844s-0.353-1.844-1.112-1.844
	c-0.761,0-1.112,0.627-1.112,1.844S477.139,147.038,477.9,147.038z M480.843,140.488h0.799v7.129h-0.799V140.488z M486.061,141.239
	l0.229,0.684l-1.217,0.276l0.817,0.941l-0.59,0.418l-0.627-1.064l-0.646,1.064l-0.58-0.418l0.827-0.941l-1.217-0.276l0.219-0.684
	l1.141,0.494l-0.104-1.245h0.723l-0.124,1.236L486.061,141.239z"/>
<path d="M448.306,152.486h0.837v2.88h0.019l2.196-2.88h0.998l-2.491,3.137l2.7,3.498h-1.084l-2.319-3.213h-0.019v3.213h-0.837
	V152.486z M454.092,152.277v0.951h-0.875v-0.951H454.092z M453.255,154.273h0.799v4.848h-0.799V154.273z M458.777,158.228
	c0,0.295,0.029,0.599,0.038,0.894h-0.77l-0.028-0.713h-0.02c-0.209,0.38-0.57,0.78-1.273,0.78c-0.998,0-1.673-0.818-1.673-2.491
	c0-1.673,0.675-2.491,1.673-2.491c0.551,0,0.912,0.219,1.235,0.732h0.02v-2.947h0.798V158.228z M456.915,154.854
	c-0.732,0-1.065,0.627-1.065,1.844s0.333,1.844,1.065,1.844c0.731,0,1.064-0.627,1.064-1.844S457.646,154.854,456.915,154.854z
	 M463.347,158.228c0,0.295,0.028,0.599,0.038,0.894h-0.771l-0.028-0.713h-0.019c-0.21,0.38-0.571,0.78-1.274,0.78
	c-0.998,0-1.673-0.818-1.673-2.491c0-1.673,0.675-2.491,1.673-2.491c0.552,0,0.913,0.219,1.236,0.732h0.019v-2.947h0.799V158.228z
	 M461.484,154.854c-0.732,0-1.064,0.627-1.064,1.844s0.332,1.844,1.064,1.844c0.731,0,1.064-0.627,1.064-1.844
	S462.215,154.854,461.484,154.854z M465.34,152.277v0.951h-0.875v-0.951H465.34z M464.503,154.273h0.799v4.848h-0.799V154.273z
	 M467.135,156.936c0,1.122,0.438,1.645,1.321,1.645c0.399,0,0.837-0.2,1.112-0.399l0.038,0.723c-0.38,0.181-0.874,0.285-1.359,0.285
	c-1.283,0-1.948-0.97-1.948-2.491s0.665-2.491,1.872-2.491c1.094,0,1.702,0.875,1.702,2.301v0.428H467.135z M469.075,156.327
	c0-1.008-0.313-1.512-0.95-1.512c-0.514,0-0.97,0.38-0.989,1.512H469.075z M473.187,152.486h1.597c0.666,0,1.084,0.181,1.436,0.514
	c0.333,0.323,0.522,0.789,0.522,1.369c0,1.293-0.751,1.978-2.157,1.978h-0.562v2.775h-0.836V152.486z M474.023,155.662h0.457
	c1.017,0,1.388-0.476,1.388-1.217c0-0.913-0.514-1.274-1.369-1.274h-0.476V155.662z M478.963,154.207
	c1.284,0,1.949,0.97,1.949,2.491s-0.665,2.491-1.949,2.491c-1.283,0-1.948-0.97-1.948-2.491S477.68,154.207,478.963,154.207z
	 M478.963,158.542c0.761,0,1.112-0.627,1.112-1.844s-0.352-1.844-1.112-1.844c-0.76,0-1.112,0.627-1.112,1.844
	S478.204,158.542,478.963,158.542z M483.542,154.207c1.283,0,1.949,0.97,1.949,2.491s-0.666,2.491-1.949,2.491
	s-1.948-0.97-1.948-2.491S482.259,154.207,483.542,154.207z M483.542,158.542c0.761,0,1.112-0.627,1.112-1.844
	s-0.352-1.844-1.112-1.844c-0.76,0-1.112,0.627-1.112,1.844S482.783,158.542,483.542,158.542z M486.487,151.992h0.798v7.129h-0.798
	V151.992z"/>
<text transform="matrix(1 0 0 1 12.1987 183.4419)" font-family="'FrutigerLTStd-BoldCn'" font-size="9.5">Public Swim</text>
<text transform="matrix(1 0 0 1 6.3657 194.9463)" font-family="'FrutigerLTStd-BoldCn'" font-size="9.5">11:30 am-1 pm</text>
<text transform="matrix(1 0 0 1 20.7583 206.4507)"><tspan x="0" y="0" font-family="'FrutigerLTStd-Cn'" font-size="9.5">All </tspan><tspan x="11.951" y="0" font-family="'FrutigerLTStd-Cn'" font-size="9.5">P</tspan><tspan x="16.178" y="0" font-family="'FrutigerLTStd-Cn'" font-size="9.5">ools</tspan></text>
<text transform="matrix(1 0 0 1 84.123 183.4512)" font-family="'FrutigerLTStd-BoldCn'" font-size="9.5">Public Swim</text>
<text transform="matrix(1 0 0 1 78.29 194.9561)" font-family="'FrutigerLTStd-BoldCn'" font-size="9.5">11:30 am-1 pm</text>
<text transform="matrix(1 0 0 1 92.6826 206.4604)"><tspan x="0" y="0" font-family="'FrutigerLTStd-Cn'" font-size="9.5">All </tspan><tspan x="11.951" y="0" font-family="'FrutigerLTStd-Cn'" font-size="9.5">P</tspan><tspan x="16.178" y="0" font-family="'FrutigerLTStd-Cn'" font-size="9.5">ools</tspan></text>
<text transform="matrix(1 0 0 1 156.0479 183.4609)" font-family="'FrutigerLTStd-BoldCn'" font-size="9.5">Public Swim</text>
<text transform="matrix(1 0 0 1 150.2148 194.9653)" font-family="'FrutigerLTStd-BoldCn'" font-size="9.5">11:30 am-1 pm</text>
<text transform="matrix(1 0 0 1 164.6074 206.4697)"><tspan x="0" y="0" font-family="'FrutigerLTStd-Cn'" font-size="9.5">All </tspan><tspan x="11.951" y="0" font-family="'FrutigerLTStd-Cn'" font-size="9.5">P</tspan><tspan x="16.178" y="0" font-family="'FrutigerLTStd-Cn'" font-size="9.5">ools</tspan></text>
<text transform="matrix(1 0 0 1 227.9722 183.4702)" font-family="'FrutigerLTStd-BoldCn'" font-size="9.5">Public Swim</text>
<text transform="matrix(1 0 0 1 222.1392 194.9746)" font-family="'FrutigerLTStd-BoldCn'" font-size="9.5">11:30 am-1 pm</text>
<text transform="matrix(1 0 0 1 236.5317 206.4795)"><tspan x="0" y="0" font-family="'FrutigerLTStd-Cn'" font-size="9.5">All </tspan><tspan x="11.951" y="0" font-family="'FrutigerLTStd-Cn'" font-size="9.5">P</tspan><tspan x="16.178" y="0" font-family="'FrutigerLTStd-Cn'" font-size="9.5">ools</tspan></text>
<text transform="matrix(1 0 0 1 299.897 183.48)" font-family="'FrutigerLTStd-BoldCn'" font-size="9.5">Public Swim</text>
<text transform="matrix(1 0 0 1 294.064 194.9844)" font-family="'FrutigerLTStd-BoldCn'" font-size="9.5">11:30 am-1 pm</text>
<text transform="matrix(1 0 0 1 308.4565 206.4888)"><tspan x="0" y="0" font-family="'FrutigerLTStd-Cn'" font-size="9.5">All </tspan><tspan x="11.95" y="0" font-family="'FrutigerLTStd-Cn'" font-size="9.5">P</tspan><tspan x="16.178" y="0" font-family="'FrutigerLTStd-Cn'" font-size="9.5">ools</tspan></text>
<text transform="matrix(1 0 0 1 371.8208 183.4893)" font-family="'FrutigerLTStd-BoldCn'" font-size="9.5">Public Swim</text>
<text transform="matrix(1 0 0 1 381.939 194.9937)" font-family="'FrutigerLTStd-BoldCn'" font-size="9.5">1-3 pm</text>
<text transform="matrix(1 0 0 1 380.3804 206.498)"><tspan x="0" y="0" font-family="'FrutigerLTStd-Cn'" font-size="9.5">All </tspan><tspan x="11.95" y="0" font-family="'FrutigerLTStd-Cn'" font-size="9.5">P</tspan><tspan x="16.178" y="0" font-family="'FrutigerLTStd-Cn'" font-size="9.5">ools</tspan></text>
<text transform="matrix(1 0 0 1 443.7456 183.499)" font-family="'FrutigerLTStd-BoldCn'" font-size="9.5">Public Swim</text>
<text transform="matrix(1 0 0 1 453.8628 195.0034)" font-family="'FrutigerLTStd-BoldCn'" font-size="9.5">1-3 pm</text>
<text transform="matrix(1 0 0 1 452.3052 206.5078)"><tspan x="0" y="0" font-family="'FrutigerLTStd-Cn'" font-size="9.5">All </tspan><tspan x="11.95" y="0" font-family="'FrutigerLTStd-Cn'" font-size="9.5">P</tspan><tspan x="16.178" y="0" font-family="'FrutigerLTStd-Cn'" font-size="9.5">ools</tspan></text>
<text transform="matrix(1 0 0 1 14.8208 230.8281)" font-family="'FrutigerLTStd-BoldCn'" font-size="9.5">Lane Swim</text>
<text transform="matrix(1 0 0 1 22.2876 242.332)" font-family="'FrutigerLTStd-BoldCn'" font-size="9.5">5-6 pm</text>
<path d="M19.685,253.104c1.683-1.93,2.519-3.251,2.519-4.135c0-0.599-0.323-1.112-0.979-1.112c-0.38,0-0.894,0.209-1.274,0.514
	l-0.104-0.837c0.57-0.275,1.15-0.399,1.559-0.399c1.026,0,1.673,0.761,1.673,1.673c0,1.16-1.036,2.871-2.472,4.307h2.567v0.723
	h-3.489V253.104z M24.511,252.867c0.285,0.171,0.77,0.352,1.15,0.352c0.846,0,1.378-0.637,1.378-1.502
	c0-0.903-0.513-1.397-1.407-1.397c-0.333,0-0.637,0.076-1.093,0.219v-3.337h3.052v0.685h-2.253v1.854
	c0.209-0.066,0.504-0.104,0.751-0.104c0.979,0,1.825,0.666,1.825,1.978c0,1.379-0.723,2.291-2.139,2.291
	c-0.428,0-0.913-0.095-1.302-0.267L24.511,252.867z M29.033,250.034c0-0.352-0.029-0.703-0.038-1.046h0.77l0.028,0.723h0.019
	c0.257-0.551,0.666-0.789,1.198-0.789c0.513,0,0.894,0.267,1.141,0.761c0.257-0.476,0.627-0.761,1.179-0.761
	c0.837,0,1.407,0.485,1.407,1.55v3.365h-0.799v-3.327c0-0.618-0.266-0.903-0.741-0.903c-0.589,0-0.913,0.361-0.913,1.236v2.994
	h-0.798v-3.327c0-0.618-0.267-0.903-0.742-0.903c-0.589,0-0.913,0.361-0.913,1.236v2.994h-0.798V250.034z M38.324,247.201h1.597
	c0.665,0,1.083,0.181,1.435,0.514c0.333,0.323,0.523,0.789,0.523,1.369c0,1.293-0.751,1.977-2.158,1.977h-0.561v2.776h-0.836
	V247.201z M39.161,250.377h0.457c1.017,0,1.388-0.476,1.388-1.217c0-0.913-0.513-1.274-1.369-1.274h-0.476V250.377z M44.101,248.922
	c1.284,0,1.949,0.97,1.949,2.491c0,1.521-0.665,2.49-1.949,2.49c-1.283,0-1.949-0.97-1.949-2.49
	C42.152,249.892,42.818,248.922,44.101,248.922z M44.101,253.257c0.761,0,1.112-0.627,1.112-1.844s-0.352-1.845-1.112-1.845
	c-0.76,0-1.112,0.628-1.112,1.845S43.341,253.257,44.101,253.257z M48.68,248.922c1.283,0,1.949,0.97,1.949,2.491
	c0,1.521-0.666,2.49-1.949,2.49s-1.949-0.97-1.949-2.49C46.731,249.892,47.397,248.922,48.68,248.922z M48.68,253.257
	c0.76,0,1.112-0.627,1.112-1.844s-0.352-1.845-1.112-1.845c-0.761,0-1.112,0.628-1.112,1.845S47.919,253.257,48.68,253.257z
	 M51.624,246.707h0.798v7.13h-0.798V246.707z"/>
<text transform="matrix(1 0 0 1 18.4497 265.3408)"><tspan x="0" y="0" font-family="'FrutigerLTStd-Cn'" font-size="9.5">Swirl </tspan><tspan x="20.035" y="0" font-family="'FrutigerLTStd-Cn'" font-size="9.5">P</tspan><tspan x="24.262" y="0" font-family="'FrutigerLTStd-Cn'" font-size="9.5">ool</tspan></text>
<text transform="matrix(1 0 0 1 158.6792 230.8369)" font-family="'FrutigerLTStd-BoldCn'" font-size="9.5">Lane Swim</text>
<text transform="matrix(1 0 0 1 166.146 242.3418)" font-family="'FrutigerLTStd-BoldCn'" font-size="9.5">5-6 pm</text>
<path d="M163.543,253.114c1.683-1.93,2.519-3.251,2.519-4.135c0-0.6-0.323-1.112-0.979-1.112c-0.38,0-0.894,0.209-1.274,0.513
	l-0.104-0.836c0.57-0.276,1.15-0.399,1.559-0.399c1.026,0,1.673,0.761,1.673,1.673c0,1.16-1.036,2.871-2.472,4.307h2.567v0.723
	h-3.489V253.114z M168.37,252.877c0.285,0.171,0.77,0.352,1.15,0.352c0.846,0,1.378-0.637,1.378-1.502
	c0-0.903-0.514-1.397-1.407-1.397c-0.333,0-0.637,0.076-1.093,0.219v-3.337h3.052v0.685h-2.253v1.854
	c0.209-0.066,0.504-0.104,0.751-0.104c0.979,0,1.825,0.665,1.825,1.978c0,1.378-0.723,2.291-2.139,2.291
	c-0.428,0-0.913-0.096-1.302-0.267L168.37,252.877z M172.892,250.044c0-0.352-0.029-0.703-0.038-1.046h0.77l0.028,0.723h0.019
	c0.257-0.552,0.666-0.789,1.198-0.789c0.514,0,0.894,0.267,1.141,0.761c0.256-0.476,0.627-0.761,1.179-0.761
	c0.836,0,1.407,0.484,1.407,1.55v3.365h-0.798v-3.327c0-0.618-0.266-0.903-0.742-0.903c-0.589,0-0.913,0.361-0.913,1.235v2.995
	h-0.798v-3.327c0-0.618-0.266-0.903-0.742-0.903c-0.589,0-0.913,0.361-0.913,1.235v2.995h-0.798V250.044z M182.183,247.211h1.597
	c0.666,0,1.083,0.181,1.436,0.514c0.333,0.323,0.522,0.789,0.522,1.368c0,1.293-0.751,1.978-2.158,1.978h-0.561v2.776h-0.836
	V247.211z M183.019,250.386h0.457c1.017,0,1.388-0.475,1.388-1.217c0-0.912-0.513-1.273-1.369-1.273h-0.476V250.386z
	 M187.959,248.932c1.284,0,1.949,0.97,1.949,2.49c0,1.521-0.666,2.491-1.949,2.491c-1.283,0-1.949-0.97-1.949-2.491
	C186.011,249.901,186.676,248.932,187.959,248.932z M187.959,253.267c0.761,0,1.112-0.628,1.112-1.845s-0.352-1.844-1.112-1.844
	c-0.76,0-1.112,0.627-1.112,1.844S187.199,253.267,187.959,253.267z M192.539,248.932c1.283,0,1.949,0.97,1.949,2.49
	c0,1.521-0.666,2.491-1.949,2.491s-1.949-0.97-1.949-2.491C190.59,249.901,191.255,248.932,192.539,248.932z M192.539,253.267
	c0.761,0,1.112-0.628,1.112-1.845s-0.352-1.844-1.112-1.844c-0.76,0-1.112,0.627-1.112,1.844S191.778,253.267,192.539,253.267z
	 M195.482,246.717h0.799v7.13h-0.799V246.717z"/>
<text transform="matrix(1 0 0 1 162.3081 265.3506)"><tspan x="0" y="0" font-family="'FrutigerLTStd-Cn'" font-size="9.5">Swirl </tspan><tspan x="20.035" y="0" font-family="'FrutigerLTStd-Cn'" font-size="9.5">P</tspan><tspan x="24.262" y="0" font-family="'FrutigerLTStd-Cn'" font-size="9.5">ool</tspan></text>
<text transform="matrix(1 0 0 1 302.5376 230.8467)" font-family="'FrutigerLTStd-BoldCn'" font-size="9.5">Lane Swim</text>
<text transform="matrix(1 0 0 1 310.0044 242.3516)" font-family="'FrutigerLTStd-BoldCn'" font-size="9.5">5-6 pm</text>
<path d="M307.402,253.124c1.683-1.93,2.52-3.251,2.52-4.136c0-0.599-0.323-1.112-0.979-1.112c-0.38,0-0.894,0.21-1.273,0.514
	l-0.104-0.837c0.57-0.275,1.149-0.398,1.559-0.398c1.026,0,1.673,0.76,1.673,1.673c0,1.159-1.036,2.871-2.472,4.307h2.567v0.722
	h-3.489V253.124z M312.228,252.886c0.285,0.172,0.771,0.353,1.15,0.353c0.846,0,1.378-0.638,1.378-1.502
	c0-0.903-0.513-1.397-1.406-1.397c-0.333,0-0.638,0.076-1.094,0.219v-3.337h3.052v0.685h-2.253v1.854
	c0.209-0.066,0.504-0.104,0.751-0.104c0.979,0,1.825,0.665,1.825,1.978c0,1.378-0.723,2.291-2.139,2.291
	c-0.428,0-0.913-0.096-1.303-0.267L312.228,252.886z M316.75,250.054c0-0.353-0.028-0.704-0.037-1.046h0.77l0.028,0.723h0.02
	c0.257-0.552,0.665-0.789,1.197-0.789c0.514,0,0.894,0.266,1.141,0.76c0.257-0.475,0.628-0.76,1.179-0.76
	c0.837,0,1.407,0.484,1.407,1.549v3.365h-0.799v-3.327c0-0.617-0.266-0.902-0.741-0.902c-0.589,0-0.912,0.36-0.912,1.235v2.994
	h-0.799v-3.327c0-0.617-0.267-0.902-0.741-0.902c-0.59,0-0.913,0.36-0.913,1.235v2.994h-0.799V250.054z M326.042,247.221h1.597
	c0.665,0,1.084,0.181,1.436,0.513c0.333,0.323,0.522,0.789,0.522,1.369c0,1.293-0.751,1.978-2.157,1.978h-0.562v2.775h-0.836
	V247.221z M326.877,250.396h0.456c1.018,0,1.389-0.476,1.389-1.217c0-0.912-0.514-1.273-1.369-1.273h-0.476V250.396z
	 M331.818,248.941c1.283,0,1.949,0.97,1.949,2.49c0,1.521-0.666,2.491-1.949,2.491s-1.948-0.97-1.948-2.491
	C329.87,249.911,330.535,248.941,331.818,248.941z M331.818,253.276c0.761,0,1.112-0.628,1.112-1.845s-0.352-1.844-1.112-1.844
	c-0.76,0-1.112,0.627-1.112,1.844S331.058,253.276,331.818,253.276z M336.397,248.941c1.283,0,1.949,0.97,1.949,2.49
	c0,1.521-0.666,2.491-1.949,2.491s-1.948-0.97-1.948-2.491C334.449,249.911,335.114,248.941,336.397,248.941z M336.397,253.276
	c0.761,0,1.112-0.628,1.112-1.845s-0.352-1.844-1.112-1.844s-1.112,0.627-1.112,1.844S335.636,253.276,336.397,253.276z
	 M339.341,246.727h0.798v7.129h-0.798V246.727z"/>
<text transform="matrix(1 0 0 1 306.1665 265.3604)"><tspan x="0" y="0" font-family="'FrutigerLTStd-Cn'" font-size="9.5">Swirl </tspan><tspan x="20.035" y="0" font-family="'FrutigerLTStd-Cn'" font-size="9.5">P</tspan><tspan x="24.263" y="0" font-family="'FrutigerLTStd-Cn'" font-size="9.5">ool</tspan></text>
<text transform="matrix(1 0 0 1 371.8208 236.6133)" font-family="'FrutigerLTStd-BoldCn'" font-size="9.5">Public Swim</text>
<text transform="matrix(1 0 0 1 375.7642 248.1182)" font-family="'FrutigerLTStd-BoldCn'" font-size="9.5">6:30-8 pm</text>
<text transform="matrix(1 0 0 1 380.3804 259.6221)"><tspan x="0" y="0" font-family="'FrutigerLTStd-Cn'" font-size="9.5">All </tspan><tspan x="11.95" y="0" font-family="'FrutigerLTStd-Cn'" font-size="9.5">P</tspan><tspan x="16.178" y="0" font-family="'FrutigerLTStd-Cn'" font-size="9.5">ools</tspan></text>
<text transform="matrix(1 0 0 1 443.7456 225.1182)" font-family="'FrutigerLTStd-BoldCn'" font-size="9.5">Public Swim</text>
<text transform="matrix(1 0 0 1 447.688 236.623)" font-family="'FrutigerLTStd-BoldCn'" font-size="9.5">6:30-8 pm</text>
<path d="M451.26,247.396c1.683-1.93,2.52-3.251,2.52-4.136c0-0.599-0.323-1.112-0.979-1.112c-0.38,0-0.894,0.21-1.273,0.514
	l-0.104-0.836c0.57-0.276,1.15-0.399,1.559-0.399c1.026,0,1.673,0.76,1.673,1.673c0,1.16-1.036,2.871-2.472,4.307h2.567v0.722
	h-3.489V247.396z M456.086,247.157c0.285,0.172,0.771,0.353,1.15,0.353c0.846,0,1.378-0.638,1.378-1.502
	c0-0.903-0.513-1.397-1.406-1.397c-0.333,0-0.637,0.076-1.094,0.219v-3.337h3.052v0.685h-2.253v1.854
	c0.209-0.066,0.504-0.104,0.751-0.104c0.979,0,1.825,0.665,1.825,1.978c0,1.378-0.723,2.291-2.139,2.291
	c-0.428,0-0.913-0.096-1.303-0.267L456.086,247.157z M460.609,244.325c0-0.353-0.029-0.704-0.038-1.046h0.77l0.028,0.723h0.02
	c0.257-0.552,0.665-0.789,1.197-0.789c0.514,0,0.894,0.266,1.141,0.76c0.257-0.475,0.628-0.76,1.18-0.76
	c0.836,0,1.406,0.484,1.406,1.549v3.365h-0.798V244.8c0-0.617-0.267-0.902-0.742-0.902c-0.589,0-0.912,0.361-0.912,1.235v2.994
	h-0.799V244.8c0-0.617-0.267-0.902-0.741-0.902c-0.59,0-0.913,0.361-0.913,1.235v2.994h-0.798V244.325z M469.9,241.492h1.597
	c0.666,0,1.084,0.181,1.436,0.513c0.333,0.323,0.522,0.789,0.522,1.369c0,1.293-0.751,1.978-2.157,1.978h-0.562v2.775H469.9V241.492
	z M470.736,244.667h0.457c1.017,0,1.388-0.476,1.388-1.217c0-0.912-0.514-1.273-1.369-1.273h-0.476V244.667z M475.676,243.213
	c1.284,0,1.949,0.97,1.949,2.49c0,1.521-0.665,2.491-1.949,2.491c-1.283,0-1.948-0.97-1.948-2.491
	C473.728,244.183,474.393,243.213,475.676,243.213z M475.676,247.548c0.761,0,1.112-0.628,1.112-1.845s-0.352-1.844-1.112-1.844
	c-0.76,0-1.112,0.627-1.112,1.844S474.917,247.548,475.676,247.548z M480.255,243.213c1.283,0,1.949,0.97,1.949,2.49
	c0,1.521-0.666,2.491-1.949,2.491s-1.948-0.97-1.948-2.491C478.307,244.183,478.972,243.213,480.255,243.213z M480.255,247.548
	c0.761,0,1.112-0.628,1.112-1.845s-0.352-1.844-1.112-1.844c-0.76,0-1.112,0.627-1.112,1.844S479.496,247.548,480.255,247.548z
	 M483.2,240.998h0.798v7.129H483.2V240.998z"/>
<text transform="matrix(1 0 0 1 450.0249 259.6318)"><tspan x="0" y="0" font-family="'FrutigerLTStd-Cn'" font-size="9.5">Swirl </tspan><tspan x="20.035" y="0" font-family="'FrutigerLTStd-Cn'" font-size="9.5">P</tspan><tspan x="24.263" y="0" font-family="'FrutigerLTStd-Cn'" font-size="9.5">ool</tspan></text>
<path d="M448.287,264.501h0.837v2.881h0.02l2.195-2.881h0.998l-2.49,3.137l2.7,3.499h-1.084l-2.319-3.214h-0.02v3.214h-0.837
	V264.501z M454.073,264.292v0.95h-0.874v-0.95H454.073z M453.237,266.288h0.798v4.849h-0.798V266.288z M458.758,270.243
	c0,0.294,0.028,0.599,0.038,0.894h-0.77l-0.029-0.714h-0.019c-0.209,0.381-0.57,0.78-1.274,0.78c-0.998,0-1.673-0.817-1.673-2.491
	c0-1.673,0.675-2.49,1.673-2.49c0.552,0,0.913,0.219,1.236,0.731h0.019v-2.946h0.799V270.243z M456.895,266.868
	c-0.731,0-1.064,0.627-1.064,1.844s0.333,1.845,1.064,1.845c0.732,0,1.064-0.628,1.064-1.845S457.627,266.868,456.895,266.868z
	 M463.328,270.243c0,0.294,0.028,0.599,0.038,0.894h-0.77l-0.028-0.714h-0.02c-0.209,0.381-0.57,0.78-1.273,0.78
	c-0.998,0-1.674-0.817-1.674-2.491c0-1.673,0.676-2.49,1.674-2.49c0.551,0,0.912,0.219,1.235,0.731h0.02v-2.946h0.798V270.243z
	 M461.464,266.868c-0.731,0-1.064,0.627-1.064,1.844s0.333,1.845,1.064,1.845c0.732,0,1.065-0.628,1.065-1.845
	S462.197,266.868,461.464,266.868z M465.321,264.292v0.95h-0.874v-0.95H465.321z M464.485,266.288h0.798v4.849h-0.798V266.288z
	 M467.117,268.95c0,1.121,0.438,1.645,1.321,1.645c0.399,0,0.837-0.2,1.112-0.399l0.038,0.723c-0.381,0.181-0.875,0.285-1.359,0.285
	c-1.283,0-1.949-0.97-1.949-2.491c0-1.521,0.666-2.49,1.873-2.49c1.093,0,1.701,0.874,1.701,2.301v0.428H467.117z M469.056,268.342
	c0-1.008-0.314-1.512-0.951-1.512c-0.513,0-0.97,0.38-0.988,1.512H469.056z M473.167,264.501h1.598c0.665,0,1.083,0.181,1.436,0.514
	c0.332,0.323,0.522,0.789,0.522,1.368c0,1.293-0.751,1.978-2.158,1.978h-0.561v2.776h-0.837V264.501z M474.004,267.676h0.456
	c1.018,0,1.388-0.475,1.388-1.217c0-0.912-0.513-1.273-1.368-1.273h-0.476V267.676z M478.945,266.222c1.283,0,1.949,0.97,1.949,2.49
	c0,1.521-0.666,2.491-1.949,2.491s-1.949-0.97-1.949-2.491C476.996,267.191,477.662,266.222,478.945,266.222z M478.945,270.557
	c0.761,0,1.112-0.628,1.112-1.845s-0.352-1.844-1.112-1.844s-1.112,0.627-1.112,1.844S478.184,270.557,478.945,270.557z
	 M483.524,266.222c1.283,0,1.948,0.97,1.948,2.49c0,1.521-0.665,2.491-1.948,2.491s-1.949-0.97-1.949-2.491
	C481.575,267.191,482.241,266.222,483.524,266.222z M483.524,270.557c0.761,0,1.112-0.628,1.112-1.845s-0.352-1.844-1.112-1.844
	s-1.112,0.627-1.112,1.844S482.763,270.557,483.524,270.557z M486.467,264.007h0.799v7.13h-0.799V264.007z"/>
<text transform="matrix(1 0 0 1 155.3354 282.584)"><tspan x="0" y="0" font-family="'FrutigerLTStd-BoldCn'" font-size="9.5">F</tspan><tspan x="3.876" y="0" font-family="'FrutigerLTStd-BoldCn'" font-size="9.5">amily Swim</tspan></text>
<text transform="matrix(1 0 0 1 159.981 294.0879)" font-family="'FrutigerLTStd-BoldCn'" font-size="9.5">6-7:30 pm</text>
<path d="M163.553,304.86c1.683-1.93,2.52-3.251,2.52-4.135c0-0.599-0.323-1.112-0.979-1.112c-0.38,0-0.894,0.209-1.273,0.514
	l-0.105-0.837c0.571-0.275,1.15-0.399,1.559-0.399c1.027,0,1.673,0.761,1.673,1.674c0,1.159-1.036,2.87-2.472,4.306h2.566v0.723
	h-3.489V304.86z M168.379,304.623c0.285,0.171,0.77,0.352,1.15,0.352c0.846,0,1.378-0.637,1.378-1.502
	c0-0.903-0.513-1.397-1.407-1.397c-0.333,0-0.637,0.076-1.093,0.219v-3.337h3.051v0.685h-2.253v1.854
	c0.209-0.066,0.504-0.104,0.751-0.104c0.979,0,1.825,0.666,1.825,1.978c0,1.379-0.722,2.291-2.139,2.291
	c-0.428,0-0.913-0.095-1.303-0.266L168.379,304.623z M172.901,301.79c0-0.352-0.028-0.703-0.038-1.045h0.77l0.029,0.722h0.019
	c0.256-0.551,0.666-0.789,1.198-0.789c0.513,0,0.894,0.267,1.141,0.761c0.257-0.476,0.627-0.761,1.179-0.761
	c0.836,0,1.407,0.485,1.407,1.55v3.365h-0.799v-3.327c0-0.618-0.266-0.903-0.741-0.903c-0.589,0-0.913,0.361-0.913,1.236v2.994
	h-0.799v-3.327c0-0.618-0.266-0.903-0.741-0.903c-0.589,0-0.913,0.361-0.913,1.236v2.994h-0.799V301.79z M182.192,298.957h1.597
	c0.666,0,1.084,0.181,1.436,0.514c0.333,0.323,0.523,0.789,0.523,1.369c0,1.293-0.751,1.978-2.158,1.978h-0.561v2.775h-0.836
	V298.957z M183.029,302.133h0.456c1.017,0,1.388-0.476,1.388-1.217c0-0.913-0.514-1.274-1.369-1.274h-0.475V302.133z
	 M187.969,300.678c1.283,0,1.949,0.97,1.949,2.491c0,1.521-0.666,2.49-1.949,2.49s-1.949-0.97-1.949-2.49
	C186.021,301.647,186.686,300.678,187.969,300.678z M187.969,305.013c0.76,0,1.112-0.627,1.112-1.844s-0.352-1.845-1.112-1.845
	c-0.761,0-1.112,0.628-1.112,1.845S187.208,305.013,187.969,305.013z M192.548,300.678c1.283,0,1.949,0.97,1.949,2.491
	c0,1.521-0.666,2.49-1.949,2.49c-1.284,0-1.949-0.97-1.949-2.49C190.599,301.647,191.265,300.678,192.548,300.678z M192.548,305.013
	c0.76,0,1.112-0.627,1.112-1.844s-0.352-1.845-1.112-1.845c-0.761,0-1.112,0.628-1.112,1.845S191.788,305.013,192.548,305.013z
	 M195.492,298.463h0.798v7.13h-0.798V298.463z"/>
<text transform="matrix(1 0 0 1 162.3179 317.0977)"><tspan x="0" y="0" font-family="'FrutigerLTStd-Cn'" font-size="9.5">Swirl </tspan><tspan x="20.035" y="0" font-family="'FrutigerLTStd-Cn'" font-size="9.5">P</tspan><tspan x="24.262" y="0" font-family="'FrutigerLTStd-Cn'" font-size="9.5">ool</tspan></text>
<path d="M160.58,321.967h0.836v2.88h0.019l2.196-2.88h0.998l-2.491,3.137l2.7,3.498h-1.083l-2.32-3.213h-0.019v3.213h-0.836V321.967
	z M166.366,321.757v0.951h-0.875v-0.951H166.366z M165.529,323.754h0.798v4.848h-0.798V323.754z M171.051,327.708
	c0,0.295,0.029,0.599,0.038,0.894h-0.77l-0.028-0.713h-0.019c-0.209,0.381-0.57,0.779-1.274,0.779c-0.998,0-1.673-0.817-1.673-2.49
	s0.675-2.49,1.673-2.49c0.551,0,0.913,0.218,1.236,0.731h0.019v-2.947h0.798V327.708z M169.188,324.334
	c-0.732,0-1.064,0.627-1.064,1.844s0.333,1.844,1.064,1.844s1.065-0.627,1.065-1.844S169.919,324.334,169.188,324.334z
	 M175.621,327.708c0,0.295,0.028,0.599,0.038,0.894h-0.77l-0.028-0.713h-0.019c-0.209,0.381-0.57,0.779-1.274,0.779
	c-0.998,0-1.673-0.817-1.673-2.49s0.675-2.49,1.673-2.49c0.552,0,0.913,0.218,1.236,0.731h0.019v-2.947h0.799V327.708z
	 M173.757,324.334c-0.732,0-1.065,0.627-1.065,1.844s0.333,1.844,1.065,1.844s1.064-0.627,1.064-1.844
	S174.489,324.334,173.757,324.334z M177.614,321.757v0.951h-0.875v-0.951H177.614z M176.777,323.754h0.798v4.848h-0.798V323.754z
	 M179.409,326.415c0,1.122,0.437,1.645,1.321,1.645c0.399,0,0.836-0.199,1.112-0.398l0.038,0.722
	c-0.38,0.181-0.875,0.285-1.359,0.285c-1.284,0-1.949-0.97-1.949-2.49c0-1.521,0.666-2.49,1.873-2.49c1.093,0,1.702,0.874,1.702,2.3
	v0.428H179.409z M181.348,325.807c0-1.007-0.313-1.511-0.951-1.511c-0.513,0-0.969,0.38-0.988,1.511H181.348z M185.46,321.967h1.597
	c0.666,0,1.084,0.181,1.436,0.513c0.333,0.323,0.523,0.789,0.523,1.369c0,1.293-0.751,1.978-2.158,1.978h-0.561v2.775h-0.836
	V321.967z M186.297,325.142h0.456c1.018,0,1.388-0.476,1.388-1.217c0-0.913-0.513-1.273-1.369-1.273h-0.475V325.142z
	 M191.237,323.688c1.283,0,1.949,0.969,1.949,2.49c0,1.521-0.666,2.49-1.949,2.49s-1.949-0.97-1.949-2.49
	C189.289,324.656,189.954,323.688,191.237,323.688z M191.237,328.021c0.76,0,1.112-0.627,1.112-1.844s-0.352-1.844-1.112-1.844
	s-1.112,0.627-1.112,1.844S190.477,328.021,191.237,328.021z M195.816,323.688c1.283,0,1.949,0.969,1.949,2.49
	c0,1.521-0.666,2.49-1.949,2.49c-1.284,0-1.949-0.97-1.949-2.49C193.868,324.656,194.533,323.688,195.816,323.688z M195.816,328.021
	c0.76,0,1.112-0.627,1.112-1.844s-0.352-1.844-1.112-1.844c-0.761,0-1.112,0.627-1.112,1.844S195.056,328.021,195.816,328.021z
	 M198.76,321.472h0.798v7.13h-0.798V321.472z"/>
<text transform="matrix(1 0 0 1 14.8398 341.417)" font-family="'FrutigerLTStd-BoldCn'" font-size="9.5">Lane Swim</text>
<text transform="matrix(1 0 0 1 9.9565 352.9219)" font-family="'FrutigerLTStd-BoldCn'" font-size="9.5">8:15-9:15 pm</text>
<path d="M17.595,363.457c0.285,0.171,0.77,0.352,1.15,0.352c0.846,0,1.378-0.637,1.378-1.502c0-0.903-0.513-1.397-1.407-1.397
	c-0.333,0-0.637,0.076-1.093,0.219v-3.337h3.052v0.685h-2.253v1.854c0.209-0.066,0.503-0.104,0.751-0.104
	c0.979,0,1.825,0.665,1.825,1.978c0,1.378-0.723,2.291-2.139,2.291c-0.428,0-0.913-0.096-1.302-0.267L17.595,363.457z
	 M23.819,357.725c1.245,0,1.93,1.169,1.93,3.384s-0.685,3.385-1.93,3.385c-1.246,0-1.93-1.17-1.93-3.385
	S22.573,357.725,23.819,357.725z M23.819,363.809c0.76,0,1.093-0.837,1.093-2.7s-0.333-2.699-1.093-2.699
	c-0.761,0-1.093,0.836-1.093,2.699S23.058,363.809,23.819,363.809z M26.677,360.624c0-0.352-0.029-0.704-0.038-1.046h0.77
	l0.028,0.723h0.019c0.257-0.552,0.666-0.789,1.198-0.789c0.513,0,0.894,0.266,1.141,0.761c0.257-0.476,0.627-0.761,1.179-0.761
	c0.837,0,1.407,0.484,1.407,1.55v3.365h-0.799v-3.328c0-0.617-0.266-0.902-0.741-0.902c-0.589,0-0.913,0.361-0.913,1.235v2.995
	h-0.799v-3.328c0-0.617-0.266-0.902-0.741-0.902c-0.589,0-0.913,0.361-0.913,1.235v2.995h-0.798V360.624z M35.968,357.791h1.597
	c0.665,0,1.083,0.181,1.435,0.514c0.333,0.323,0.523,0.789,0.523,1.368c0,1.293-0.751,1.978-2.158,1.978h-0.561v2.776h-0.836
	V357.791z M36.805,360.966h0.457c1.017,0,1.388-0.475,1.388-1.217c0-0.912-0.513-1.273-1.369-1.273h-0.475V360.966z M41.745,359.512
	c1.283,0,1.949,0.97,1.949,2.49c0,1.521-0.666,2.491-1.949,2.491s-1.949-0.97-1.949-2.491
	C39.796,360.481,40.462,359.512,41.745,359.512z M41.745,363.847c0.761,0,1.112-0.628,1.112-1.845s-0.352-1.844-1.112-1.844
	c-0.76,0-1.112,0.627-1.112,1.844S40.985,363.847,41.745,363.847z M46.324,359.512c1.283,0,1.949,0.97,1.949,2.49
	c0,1.521-0.666,2.491-1.949,2.491s-1.949-0.97-1.949-2.491C44.375,360.481,45.041,359.512,46.324,359.512z M46.324,363.847
	c0.76,0,1.112-0.628,1.112-1.845s-0.352-1.844-1.112-1.844c-0.761,0-1.112,0.627-1.112,1.844S45.563,363.847,46.324,363.847z
	 M49.268,357.297h0.798v7.13h-0.798V357.297z M50.721,361.432h4.753v0.646h-4.753V361.432z"/>
<text transform="matrix(1 0 0 1 21.9741 375.9307)" font-family="'FrutigerLTStd-Cn'" font-size="9.5">Shallow</text>
<text transform="matrix(1 0 0 1 86.7642 341.4268)" font-family="'FrutigerLTStd-BoldCn'" font-size="9.5">Lane Swim</text>
<text transform="matrix(1 0 0 1 81.8813 352.9316)" font-family="'FrutigerLTStd-BoldCn'" font-size="9.5">8:15-9:15 pm</text>
<path d="M89.52,363.466c0.285,0.172,0.77,0.353,1.15,0.353c0.846,0,1.378-0.638,1.378-1.503c0-0.902-0.513-1.396-1.407-1.396
	c-0.333,0-0.637,0.075-1.093,0.218v-3.336H92.6v0.685h-2.253v1.854c0.209-0.066,0.504-0.104,0.751-0.104
	c0.979,0,1.825,0.665,1.825,1.977c0,1.379-0.723,2.291-2.139,2.291c-0.428,0-0.913-0.095-1.303-0.266L89.52,363.466z
	 M95.743,357.734c1.245,0,1.93,1.169,1.93,3.384s-0.685,3.384-1.93,3.384s-1.93-1.169-1.93-3.384S94.498,357.734,95.743,357.734z
	 M95.743,363.818c0.76,0,1.093-0.837,1.093-2.7s-0.333-2.7-1.093-2.7s-1.093,0.837-1.093,2.7S94.983,363.818,95.743,363.818z
	 M98.602,360.634c0-0.353-0.029-0.704-0.038-1.046h0.77l0.028,0.723h0.019c0.257-0.552,0.666-0.789,1.198-0.789
	c0.514,0,0.894,0.266,1.141,0.76c0.256-0.475,0.627-0.76,1.179-0.76c0.836,0,1.407,0.484,1.407,1.549v3.365h-0.798v-3.327
	c0-0.617-0.266-0.903-0.742-0.903c-0.589,0-0.913,0.361-0.913,1.236v2.994h-0.798v-3.327c0-0.617-0.266-0.903-0.742-0.903
	c-0.589,0-0.913,0.361-0.913,1.236v2.994h-0.798V360.634z M107.893,357.801h1.597c0.666,0,1.083,0.181,1.436,0.513
	c0.333,0.323,0.522,0.789,0.522,1.369c0,1.293-0.751,1.978-2.158,1.978h-0.561v2.775h-0.836V357.801z M108.729,360.976h0.457
	c1.017,0,1.388-0.476,1.388-1.217c0-0.913-0.513-1.273-1.369-1.273h-0.476V360.976z M113.67,359.521c1.283,0,1.949,0.97,1.949,2.49
	s-0.666,2.49-1.949,2.49c-1.284,0-1.949-0.97-1.949-2.49S112.386,359.521,113.67,359.521z M113.67,363.855
	c0.76,0,1.112-0.627,1.112-1.844s-0.352-1.844-1.112-1.844c-0.761,0-1.112,0.627-1.112,1.844S112.909,363.855,113.67,363.855z
	 M118.249,359.521c1.283,0,1.949,0.97,1.949,2.49s-0.666,2.49-1.949,2.49s-1.949-0.97-1.949-2.49S116.965,359.521,118.249,359.521z
	 M118.249,363.855c0.761,0,1.112-0.627,1.112-1.844s-0.352-1.844-1.112-1.844c-0.76,0-1.112,0.627-1.112,1.844
	S117.488,363.855,118.249,363.855z M121.192,357.306h0.799v7.13h-0.799V357.306z M122.646,361.441h4.753v0.646h-4.753V361.441z"/>
<text transform="matrix(1 0 0 1 93.8989 375.9404)" font-family="'FrutigerLTStd-Cn'" font-size="9.5">Shallow</text>
<text transform="matrix(1 0 0 1 158.689 341.4365)" font-family="'FrutigerLTStd-BoldCn'" font-size="9.5">Lane Swim</text>
<text transform="matrix(1 0 0 1 153.8057 352.9404)" font-family="'FrutigerLTStd-BoldCn'" font-size="9.5">8:15-9:15 pm</text>
<path d="M161.444,363.476c0.285,0.171,0.77,0.352,1.15,0.352c0.846,0,1.378-0.637,1.378-1.502c0-0.903-0.513-1.397-1.407-1.397
	c-0.333,0-0.637,0.076-1.093,0.219v-3.337h3.051v0.685h-2.253v1.854c0.209-0.066,0.504-0.104,0.751-0.104
	c0.979,0,1.825,0.666,1.825,1.978c0,1.379-0.722,2.291-2.139,2.291c-0.428,0-0.913-0.095-1.302-0.266L161.444,363.476z
	 M167.667,357.743c1.246,0,1.93,1.17,1.93,3.385s-0.685,3.384-1.93,3.384c-1.245,0-1.93-1.169-1.93-3.384
	S166.422,357.743,167.667,357.743z M167.667,363.827c0.761,0,1.093-0.836,1.093-2.699s-0.333-2.7-1.093-2.7
	c-0.76,0-1.093,0.837-1.093,2.7S166.907,363.827,167.667,363.827z M170.526,360.643c0-0.352-0.028-0.703-0.038-1.046h0.77
	l0.029,0.723h0.019c0.256-0.551,0.666-0.789,1.198-0.789c0.513,0,0.894,0.267,1.141,0.761c0.257-0.476,0.627-0.761,1.179-0.761
	c0.836,0,1.407,0.485,1.407,1.55v3.365h-0.799v-3.327c0-0.618-0.266-0.903-0.741-0.903c-0.589,0-0.913,0.361-0.913,1.236v2.994
	h-0.799v-3.327c0-0.618-0.266-0.903-0.741-0.903c-0.589,0-0.913,0.361-0.913,1.236v2.994h-0.799V360.643z M179.817,357.81h1.597
	c0.666,0,1.084,0.181,1.436,0.514c0.333,0.323,0.523,0.789,0.523,1.369c0,1.293-0.751,1.978-2.158,1.978h-0.561v2.775h-0.836V357.81
	z M180.654,360.985h0.456c1.017,0,1.388-0.476,1.388-1.217c0-0.913-0.514-1.274-1.369-1.274h-0.475V360.985z M185.594,359.53
	c1.283,0,1.949,0.97,1.949,2.491c0,1.521-0.666,2.49-1.949,2.49s-1.949-0.97-1.949-2.49
	C183.646,360.5,184.311,359.53,185.594,359.53z M185.594,363.865c0.76,0,1.112-0.627,1.112-1.844s-0.352-1.845-1.112-1.845
	c-0.761,0-1.112,0.628-1.112,1.845S184.833,363.865,185.594,363.865z M190.173,359.53c1.283,0,1.949,0.97,1.949,2.491
	c0,1.521-0.666,2.49-1.949,2.49c-1.284,0-1.949-0.97-1.949-2.49C188.224,360.5,188.89,359.53,190.173,359.53z M190.173,363.865
	c0.76,0,1.112-0.627,1.112-1.844s-0.352-1.845-1.112-1.845c-0.761,0-1.112,0.628-1.112,1.845S189.413,363.865,190.173,363.865z
	 M193.117,357.315h0.798v7.13h-0.798V357.315z M194.57,361.451h4.753v0.646h-4.753V361.451z"/>
<text transform="matrix(1 0 0 1 165.8232 375.9502)" font-family="'FrutigerLTStd-Cn'" font-size="9.5">Shallow</text>
<text transform="matrix(1 0 0 1 230.6133 341.4463)" font-family="'FrutigerLTStd-BoldCn'" font-size="9.5">Lane Swim</text>
<text transform="matrix(1 0 0 1 225.73 352.9502)" font-family="'FrutigerLTStd-BoldCn'" font-size="9.5">8:15-9:15 pm</text>
<path d="M233.369,363.485c0.285,0.171,0.77,0.352,1.15,0.352c0.846,0,1.378-0.637,1.378-1.502c0-0.903-0.514-1.397-1.407-1.397
	c-0.333,0-0.637,0.076-1.093,0.219v-3.337h3.052v0.685h-2.253v1.854c0.209-0.066,0.504-0.104,0.751-0.104
	c0.979,0,1.825,0.666,1.825,1.978c0,1.378-0.723,2.291-2.139,2.291c-0.428,0-0.913-0.095-1.302-0.267L233.369,363.485z
	 M239.592,357.753c1.245,0,1.93,1.169,1.93,3.384c0,2.216-0.685,3.385-1.93,3.385c-1.246,0-1.93-1.169-1.93-3.385
	C237.663,358.922,238.347,357.753,239.592,357.753z M239.592,363.837c0.76,0,1.093-0.837,1.093-2.7s-0.333-2.699-1.093-2.699
	c-0.761,0-1.093,0.836-1.093,2.699S238.832,363.837,239.592,363.837z M242.451,360.652c0-0.352-0.029-0.703-0.038-1.046h0.77
	l0.028,0.723h0.019c0.257-0.552,0.666-0.789,1.198-0.789c0.513,0,0.894,0.267,1.141,0.761c0.257-0.476,0.627-0.761,1.179-0.761
	c0.836,0,1.407,0.484,1.407,1.55v3.365h-0.798v-3.327c0-0.618-0.267-0.903-0.742-0.903c-0.589,0-0.913,0.361-0.913,1.235v2.995
	h-0.799v-3.327c0-0.618-0.266-0.903-0.741-0.903c-0.589,0-0.913,0.361-0.913,1.235v2.995h-0.798V360.652z M251.742,357.819h1.597
	c0.666,0,1.084,0.181,1.436,0.514c0.333,0.323,0.523,0.789,0.523,1.369c0,1.292-0.751,1.977-2.158,1.977h-0.561v2.776h-0.836
	V357.819z M252.578,360.994h0.457c1.017,0,1.388-0.475,1.388-1.217c0-0.912-0.514-1.273-1.369-1.273h-0.475V360.994z
	 M257.519,359.54c1.283,0,1.948,0.97,1.948,2.49c0,1.521-0.665,2.491-1.948,2.491c-1.284,0-1.949-0.97-1.949-2.491
	C255.57,360.51,256.235,359.54,257.519,359.54z M257.519,363.875c0.76,0,1.112-0.628,1.112-1.845s-0.353-1.844-1.112-1.844
	c-0.761,0-1.112,0.627-1.112,1.844S256.758,363.875,257.519,363.875z M262.097,359.54c1.284,0,1.949,0.97,1.949,2.49
	c0,1.521-0.665,2.491-1.949,2.491c-1.283,0-1.948-0.97-1.948-2.491C260.149,360.51,260.814,359.54,262.097,359.54z M262.097,363.875
	c0.761,0,1.112-0.628,1.112-1.845s-0.352-1.844-1.112-1.844c-0.76,0-1.111,0.627-1.111,1.844S261.337,363.875,262.097,363.875z
	 M265.042,357.325h0.799v7.13h-0.799V357.325z M266.495,361.46h4.753v0.646h-4.753V361.46z"/>
<text transform="matrix(1 0 0 1 237.7476 375.959)" font-family="'FrutigerLTStd-Cn'" font-size="9.5">Shallow</text>
<text transform="matrix(1 0 0 1 302.5376 341.4551)" font-family="'FrutigerLTStd-BoldCn'" font-size="9.5">Lane Swim</text>
<text transform="matrix(1 0 0 1 297.6548 352.96)" font-family="'FrutigerLTStd-BoldCn'" font-size="9.5">8:15-9:15 pm</text>
<path d="M305.293,363.495c0.285,0.171,0.77,0.352,1.149,0.352c0.847,0,1.379-0.637,1.379-1.502c0-0.903-0.514-1.397-1.407-1.397
	c-0.332,0-0.637,0.076-1.093,0.219v-3.337h3.052v0.685h-2.253v1.854c0.209-0.066,0.503-0.104,0.751-0.104
	c0.979,0,1.825,0.665,1.825,1.978c0,1.378-0.723,2.291-2.14,2.291c-0.428,0-0.912-0.096-1.302-0.267L305.293,363.495z
	 M311.517,357.763c1.245,0,1.93,1.169,1.93,3.384s-0.685,3.385-1.93,3.385c-1.246,0-1.93-1.17-1.93-3.385
	S310.271,357.763,311.517,357.763z M311.517,363.847c0.76,0,1.093-0.837,1.093-2.7s-0.333-2.699-1.093-2.699
	c-0.761,0-1.094,0.836-1.094,2.699S310.756,363.847,311.517,363.847z M314.375,360.662c0-0.352-0.028-0.704-0.037-1.046h0.77
	l0.028,0.723h0.02c0.257-0.552,0.665-0.789,1.197-0.789c0.514,0,0.894,0.266,1.141,0.761c0.257-0.476,0.628-0.761,1.179-0.761
	c0.837,0,1.407,0.484,1.407,1.549v3.365h-0.799v-3.327c0-0.617-0.266-0.902-0.741-0.902c-0.589,0-0.912,0.361-0.912,1.235v2.994
	h-0.799v-3.327c0-0.617-0.267-0.902-0.741-0.902c-0.59,0-0.913,0.361-0.913,1.235v2.994h-0.799V360.662z M323.667,357.829h1.597
	c0.665,0,1.084,0.181,1.436,0.514c0.333,0.322,0.522,0.788,0.522,1.368c0,1.293-0.751,1.978-2.157,1.978h-0.562v2.775h-0.836
	V357.829z M324.502,361.004h0.456c1.018,0,1.389-0.476,1.389-1.217c0-0.912-0.514-1.273-1.369-1.273h-0.476V361.004z
	 M329.443,359.55c1.283,0,1.949,0.97,1.949,2.49c0,1.521-0.666,2.491-1.949,2.491s-1.948-0.97-1.948-2.491
	C327.495,360.52,328.16,359.55,329.443,359.55z M329.443,363.885c0.761,0,1.112-0.628,1.112-1.845s-0.352-1.844-1.112-1.844
	c-0.76,0-1.112,0.627-1.112,1.844S328.683,363.885,329.443,363.885z M334.022,359.55c1.283,0,1.949,0.97,1.949,2.49
	c0,1.521-0.666,2.491-1.949,2.491s-1.948-0.97-1.948-2.491C332.074,360.52,332.739,359.55,334.022,359.55z M334.022,363.885
	c0.761,0,1.112-0.628,1.112-1.845s-0.352-1.844-1.112-1.844s-1.112,0.627-1.112,1.844S333.261,363.885,334.022,363.885z
	 M336.966,357.335h0.798v7.129h-0.798V357.335z M338.419,361.47h4.753v0.646h-4.753V361.47z"/>
<text transform="matrix(1 0 0 1 309.6724 375.9688)" font-family="'FrutigerLTStd-Cn'" font-size="9.5">Shallow</text>
</svg>
